<svg width="386" height="473" viewBox="0 0 386 473" fill="none" xmlns="http://www.w3.org/2000/svg">
<path d="M146.475 215.971C143.061 211.983 137.741 212.227 135.48 217.333L79.7064 339.398C77.4896 344.261 80.7704 349.951 85.6473 349.951H163.234C165.805 350 168.111 348.395 169.175 345.866C185.978 308.031 175.869 250.402 146.475 215.971V215.971ZM187.352 104.945C133.13 198.999 183.584 274.475 216.17 345.915C217.278 348.395 219.584 350 222.111 350H299.343C304.308 350 307.5 344.261 305.284 339.447C305.284 339.447 201.318 110.587 198.702 104.897C196.352 99.7417 190.367 99.6444 187.352 104.945Z" fill="#383838"/>
</svg>
