<svg width="1440" height="1024" viewBox="0 0 1440 1024" fill="none" xmlns="http://www.w3.org/2000/svg">
<rect width="1440" height="1024" fill="black"/>
<path d="M120 530.843L156.055 549.305C177.293 560.179 202.816 558.337 222.272 544.526L224.907 542.655C235.732 534.971 248.678 530.843 261.954 530.843H281.697C297.489 530.843 312.127 522.573 320.279 509.047V509.047C330.752 491.668 351.552 483.437 371.082 488.942L379.999 491.455C404.682 498.413 430.979 488.089 444.337 466.198L453 452" stroke="#CAFF9E" stroke-width="5"/>
<path d="M867 205.843L903.055 224.305C924.293 235.179 949.816 233.337 969.272 219.526L971.907 217.655C982.732 209.971 995.678 205.843 1008.95 205.843H1028.7C1044.49 205.843 1059.13 197.573 1067.28 184.047V184.047C1077.75 166.668 1098.55 158.437 1118.08 163.942L1127 166.455C1151.68 173.413 1177.98 163.089 1191.34 141.198L1200 127" stroke="#CAFF9E" stroke-width="5"/>
<path d="M534 865.843L570.055 884.305C591.293 895.179 616.816 893.337 636.272 879.526L638.907 877.655C649.732 869.971 662.678 865.843 675.954 865.843H695.697C711.489 865.843 726.127 857.573 734.279 844.047V844.047C744.752 826.668 765.552 818.437 785.082 823.942L793.999 826.455C818.682 833.413 844.979 823.089 858.337 801.198L867 787" stroke="#CAFF9E" stroke-width="5"/>
<circle cx="1364" cy="242" r="29" fill="black" stroke="#CAFF9E" stroke-width="4"/>
<circle cx="836" cy="452" r="29" fill="black" stroke="#CAFF9E" stroke-width="4"/>
<circle cx="142" cy="814" r="29" fill="black" stroke="#CAFF9E" stroke-width="4"/>
<circle cx="1283" cy="902" r="29" fill="black" stroke="#CAFF9E" stroke-width="4"/>
<circle cx="173" cy="154" r="29" fill="black" stroke="#CAFF9E" stroke-width="4"/>
<circle cx="692.966" cy="149.947" r="23.4468" fill="black" stroke="#CAFF9E" stroke-width="7"/>
<path d="M637 203.581L675.866 170.157H682.343L646.846 215.5L637 203.581Z" fill="#CAFF9E"/>
<circle cx="125.966" cy="381.947" r="23.4468" fill="black" stroke="#CAFF9E" stroke-width="7"/>
<path d="M70 435.581L108.866 402.157H115.343L79.8459 447.5L70 435.581Z" fill="#CAFF9E"/>
<circle cx="881.966" cy="897.947" r="23.4468" fill="black" stroke="#CAFF9E" stroke-width="7"/>
<path d="M826 951.581L864.866 918.157H871.343L835.846 963.5L826 951.581Z" fill="#CAFF9E"/>
<circle cx="1286.97" cy="463.947" r="23.4468" fill="black" stroke="#CAFF9E" stroke-width="7"/>
<path d="M1231 517.581L1269.87 484.157H1276.34L1240.85 529.5L1231 517.581Z" fill="#CAFF9E"/>
</svg>
