<svg width="490" height="1024" viewBox="0 0 490 1024" fill="none" xmlns="http://www.w3.org/2000/svg">
<path d="M351.027 823.988L362.522 840.491L338.517 858.984L309.024 834.977L351.027 823.988Z" fill="#00940F"/>
<path d="M481 1015L476.342 1016.82C477.091 1018.74 478.94 1020 481 1020L481 1015ZM436.506 901.011L441.164 899.193L440.687 897.971L439.672 897.14L436.506 901.011ZM351.027 823.988L355.129 821.13L353.136 818.268L349.761 819.151L351.027 823.988ZM309.024 834.977L307.758 830.139L298.225 832.633L305.867 838.854L309.024 834.977ZM338.517 858.984L335.361 862.862L338.432 865.362L341.569 862.945L338.517 858.984ZM485.658 1013.18L441.164 899.193L431.848 902.829L476.342 1016.82L485.658 1013.18ZM439.672 897.14L365.688 836.621L359.356 844.361L433.34 904.881L439.672 897.14ZM366.625 837.633L355.129 821.13L346.924 826.846L358.419 843.349L366.625 837.633ZM349.761 819.151L307.758 830.139L310.289 839.814L352.292 828.825L349.761 819.151ZM305.867 838.854L335.361 862.862L341.674 855.107L312.18 831.099L305.867 838.854ZM341.569 862.945L365.574 844.452L359.471 836.53L335.466 855.024L341.569 862.945ZM481 1020L487 1020L487 1010L481 1010L481 1020Z" fill="#93B874"/>
<path d="M426 785L446 801L453.5 771L428.5 751.5L426 785Z" fill="#00940F"/>
<path d="M454 936L473.5 887L446 801M446 801L426 785L428.5 751.5L453.5 771L446 801Z" stroke="#93B874" stroke-width="10" stroke-linecap="round"/>
<path d="M361 705L383.5 733.5L391.5 705L376.5 670L361 705Z" fill="#00940F"/>
<path d="M414 882.5L431 845.5L383.5 793.5V733.5M383.5 733.5L361 705L376.5 670L391.5 705L383.5 733.5Z" stroke="#93B874" stroke-width="10"/>
<path d="M425.04 480.011L457.538 511.001L474.492 463.488L431.287 419.331L425.04 480.011Z" fill="#00940F"/>
<path d="M385 768L457.538 657L449.806 586.104L469 560L457.538 511.001M457.538 511.001L425.04 480.011L431.287 419.331L474.492 463.488L457.538 511.001Z" stroke="#93B874" stroke-width="10"/>
</svg>
