<svg width="488" height="1024" viewBox="0 0 488 1024" fill="none" xmlns="http://www.w3.org/2000/svg">
<path d="M137.696 823.988L126.224 840.491L150.179 858.984L179.612 834.977L137.696 823.988Z" fill="#00940F"/>
<path d="M7.98973 1015L12.6487 1016.81C11.9007 1018.74 10.0508 1020 7.98973 1020L7.98973 1015ZM52.3921 901.011L47.7331 899.196L48.2088 897.975L49.2224 897.144L52.3921 901.011ZM137.696 823.988L133.59 821.134L135.584 818.265L138.964 819.151L137.696 823.988ZM179.612 834.977L180.88 830.14L190.394 832.634L182.773 838.851L179.612 834.977ZM150.179 858.984L153.34 862.859L150.265 865.367L147.124 862.942L150.179 858.984ZM3.33072 1013.19L47.7331 899.196L57.0511 902.825L12.6487 1016.81L3.33072 1013.19ZM49.2224 897.144L123.054 836.624L129.393 844.358L55.5618 904.877L49.2224 897.144ZM122.118 837.637L133.59 821.134L141.801 826.842L130.329 843.345L122.118 837.637ZM138.964 819.151L180.88 830.14L178.344 839.813L136.428 828.824L138.964 819.151ZM182.773 838.851L153.34 862.859L147.019 855.11L176.452 831.102L182.773 838.851ZM147.124 862.942L123.168 844.449L129.279 836.533L153.235 855.027L147.124 862.942ZM7.98973 1020L0.999998 1020L0.999998 1010L7.98973 1010L7.98973 1020Z" fill="#93B874"/>
<path d="M62.8765 785L42.9176 801L35.433 771L60.3816 751.5L62.8765 785Z" fill="#00940F"/>
<path d="M34.9341 936L15.4742 887L42.9176 801M42.9176 801L62.8765 785L60.3816 751.5L35.433 771L42.9176 801Z" stroke="#93B874" stroke-width="10" stroke-linecap="round"/>
<path d="M127.743 705L105.289 733.5L97.3056 705L112.275 670L127.743 705Z" fill="#00940F"/>
<path d="M74.8519 882.5L57.8868 845.5L105.289 793.5V733.5M105.289 733.5L127.743 705L112.275 670L97.3056 705L105.289 733.5Z" stroke="#93B874" stroke-width="10"/>
<path d="M63.8344 480.011L31.4038 511.001L14.4842 463.488L57.6009 419.331L63.8344 480.011Z" fill="#00940F"/>
<path d="M103.792 768L31.4038 657L39.119 586.104L19.9651 560L31.4038 511.001M31.4038 511.001L63.8344 480.011L57.6009 419.331L14.4842 463.488L31.4038 511.001Z" stroke="#93B874" stroke-width="10"/>
</svg>
