<svg width="107" height="105" viewBox="0 0 107 105" fill="none" xmlns="http://www.w3.org/2000/svg">
<ellipse cx="53.5" cy="52.5" rx="53.5" ry="52.5" fill="#484848"/>
<path d="M45.5083 73.256C46.9003 73.016 47.9083 72.56 48.5323 71.888C49.2043 71.168 49.5403 70.136 49.5403 68.792V53.24C49.5403 51.704 49.3243 50.648 48.8923 50.072C48.4603 49.496 47.6683 49.208 46.5163 49.208C46.1803 49.208 45.8443 49.232 45.5083 49.28C45.1723 49.328 44.9563 49.376 44.8603 49.424L45.2923 45.32C47.9803 44.936 50.7163 44.504 53.5003 44.024C56.2843 43.496 58.0843 43.136 58.9003 42.944L59.5483 44.096C59.0203 45.152 58.5883 48.056 58.2523 52.808C57.9643 57.512 57.8203 63.056 57.8203 69.44C57.8203 70.592 57.9883 71.408 58.3243 71.888C58.6603 72.368 59.2363 72.608 60.0523 72.608C60.4843 72.608 60.8923 72.584 61.2763 72.536C61.7083 72.488 61.9963 72.464 62.1403 72.464L62.3563 72.824L61.6363 77.216C61.1083 77.168 60.0523 77.12 58.4683 77.072C56.9323 77.024 55.3483 77 53.7163 77C52.2283 77 50.5243 77.096 48.6043 77.288C46.7323 77.528 45.5083 77.696 44.9323 77.792L45.5083 73.256ZM53.0683 36.752C51.4843 36.752 50.2603 36.296 49.3963 35.384C48.5323 34.472 48.1003 33.248 48.1003 31.712C48.1003 29.984 48.6043 28.592 49.6123 27.536C50.6683 26.48 52.0603 25.952 53.7883 25.952C55.3243 25.952 56.5243 26.432 57.3883 27.392C58.2523 28.304 58.6843 29.528 58.6843 31.064C58.6843 32.744 58.1563 34.112 57.1003 35.168C56.0923 36.224 54.7483 36.752 53.0683 36.752Z" fill="white"/>
</svg>
