<svg width="48" height="48" viewBox="0 0 48 48" fill="none" xmlns="http://www.w3.org/2000/svg">
<circle cx="24" cy="24" r="24" fill="#FE4164"/>
<path d="M23.5028 17.8467C19.9557 17.8467 17.0945 20.594 17.0945 24C17.0945 27.406 19.9557 30.1533 23.5028 30.1533C27.0499 30.1533 29.911 27.406 29.911 24C29.911 20.594 27.0499 17.8467 23.5028 17.8467ZM23.5028 28.0004C21.2105 28.0004 19.3366 26.2064 19.3366 24C19.3366 21.7936 21.205 19.9996 23.5028 19.9996C25.8006 19.9996 27.669 21.7936 27.669 24C27.669 26.2064 25.795 28.0004 23.5028 28.0004ZM31.6679 17.595C31.6679 18.3929 30.9986 19.0302 30.1732 19.0302C29.3422 19.0302 28.6785 18.3876 28.6785 17.595C28.6785 16.8024 29.3477 16.1598 30.1732 16.1598C30.9986 16.1598 31.6679 16.8024 31.6679 17.595ZM35.9122 19.0517C35.8173 17.1291 35.36 15.4261 33.8932 14.023C32.432 12.6199 30.6584 12.1807 28.6562 12.0843C26.5926 11.9719 20.4074 11.9719 18.3438 12.0843C16.3472 12.1754 14.5736 12.6145 13.1068 14.0176C11.64 15.4207 11.1882 17.1237 11.0878 19.0463C10.9707 21.0278 10.9707 26.9669 11.0878 28.9483C11.1827 30.8709 11.64 32.5739 13.1068 33.977C14.5736 35.3801 16.3416 35.8193 18.3438 35.9157C20.4074 36.0281 26.5926 36.0281 28.6562 35.9157C30.6584 35.8246 32.432 35.3855 33.8932 33.977C35.3544 32.5739 35.8118 30.8709 35.9122 28.9483C36.0293 26.9669 36.0293 21.0331 35.9122 19.0517ZM33.2462 31.0744C32.8112 32.1241 31.969 32.9327 30.8703 33.3558C29.225 33.9824 25.321 33.8378 23.5028 33.8378C21.6846 33.8378 17.775 33.977 16.1352 33.3558C15.0421 32.9381 14.1999 32.1294 13.7593 31.0744C13.1068 29.4946 13.2574 25.7458 13.2574 24C13.2574 22.2542 13.1124 18.5001 13.7593 16.9256C14.1944 15.8759 15.0365 15.0673 16.1352 14.6442C17.7805 14.0176 21.6846 14.1622 23.5028 14.1622C25.321 14.1622 29.2306 14.023 30.8703 14.6442C31.9635 15.0619 32.8056 15.8706 33.2462 16.9256C33.8988 18.5054 33.7482 22.2542 33.7482 24C33.7482 25.7458 33.8988 29.4999 33.2462 31.0744Z" fill="#E6EEE0"/>
</svg>
