<svg width="48" height="48" viewBox="0 0 48 48" fill="none" xmlns="http://www.w3.org/2000/svg">
<circle cx="24" cy="24" r="24" fill="#FF8A70"/>
<path d="M19.1111 32C18.1333 32 17.1556 30.95 16.6667 30.5C14.2222 28.4 13.4889 27.65 13 27.2V33.5C13 34.3283 13.5473 35 14.2222 35H24C24.6749 35 25.2222 34.3283 25.2222 33.5V27.2C24.7333 27.65 24 28.4 21.5556 30.5C21.0667 30.95 20.0889 32 19.1111 32ZM24 23H14.2222C13.5473 23 13 23.6717 13 24.5V25.25C13.9778 26.15 13.8556 26.15 17.4 29.3C17.7667 29.6 18.5 30.5 19.1111 30.5C19.7222 30.5 20.4556 29.6 20.8222 29.45C24.3667 26.3 24.2444 26.3 25.2222 25.4V24.5C25.2222 23.6717 24.6749 23 24 23ZM33.7778 18.5H21.5556C20.8807 18.5 20.3333 19.1717 20.3333 20V21.5H24C25.2684 21.5 26.3142 22.6916 26.4334 24.2103L26.4444 24.2V30.5H33.7778C34.4527 30.5 35 29.8283 35 29V20C35 19.1717 34.4527 18.5 33.7778 18.5ZM32.5556 24.5H30.1111V21.5H32.5556V24.5ZM19.1111 20C19.1111 18.3458 20.2077 17 21.5556 17H30.1111V12.5C30.1111 11.6717 29.5638 11 28.8889 11H16.6667C15.9918 11 15.4444 11.6717 15.4444 12.5V21.5H19.1111V20Z" fill="#E6EEE0"/>
</svg>
