<svg width="48" height="48" viewBox="0 0 48 48" fill="none" xmlns="http://www.w3.org/2000/svg">
<circle cx="24" cy="24" r="24" fill="#22D7FF"/>
<path d="M32.7386 18.8578C32.7525 19.071 32.7525 19.2843 32.7525 19.4975C32.7525 26 28.2157 33.4924 19.9239 33.4924C17.3693 33.4924 14.9962 32.6852 13 31.2843C13.363 31.3299 13.7119 31.3452 14.0888 31.3452C16.1967 31.3452 18.137 30.5685 19.6865 29.2437C17.7043 29.198 16.0431 27.7817 15.4708 25.8325C15.75 25.8781 16.0292 25.9086 16.3223 25.9086C16.7272 25.9086 17.132 25.8477 17.5089 25.7411C15.4429 25.2842 13.8934 23.3045 13.8934 20.9137V20.8528C14.4936 21.2183 15.1916 21.4467 15.9314 21.4771C14.7169 20.5939 13.9213 19.0863 13.9213 17.3807C13.9213 16.467 14.1446 15.6294 14.5355 14.8985C16.755 17.8832 20.0913 19.8324 23.8324 20.0457C23.7626 19.6802 23.7207 19.2995 23.7207 18.9188C23.7207 16.2081 25.7309 14 28.2296 14C29.5278 14 30.7004 14.5939 31.524 15.5533C32.543 15.3401 33.5202 14.9289 34.3857 14.3655C34.0506 15.5076 33.3387 16.467 32.4035 17.0761C33.3109 16.9696 34.1903 16.6954 34.9999 16.3147C34.3858 17.2893 33.618 18.1573 32.7386 18.8578Z" fill="#E6EEE0"/>
</svg>
