<svg width="386" height="473" viewBox="0 0 386 473" fill="none" xmlns="http://www.w3.org/2000/svg">
<path d="M286 240.188V233.812C286 230.29 283.919 227.438 281.35 227.438H199.975V211.5H220.9C226.035 211.5 230.2 205.79 230.2 198.75V147.75C230.2 140.71 226.035 135 220.9 135H165.1C159.965 135 155.8 140.71 155.8 147.75V198.75C155.8 205.79 159.965 211.5 165.1 211.5H186.025V227.438H104.65C102.081 227.438 100 230.29 100 233.812V240.188C100 243.71 102.081 246.562 104.65 246.562H134.875V262.5H118.6C113.465 262.5 109.3 268.21 109.3 275.25V326.25C109.3 333.29 113.465 339 118.6 339H165.1C170.235 339 174.4 333.29 174.4 326.25V275.25C174.4 268.21 170.235 262.5 165.1 262.5H148.825V246.562H237.175V262.5H220.9C215.765 262.5 211.6 268.21 211.6 275.25V326.25C211.6 333.29 215.765 339 220.9 339H267.4C272.535 339 276.7 333.29 276.7 326.25V275.25C276.7 268.21 272.535 262.5 267.4 262.5H251.125V246.562H281.35C283.919 246.562 286 243.71 286 240.188ZM174.4 186V160.5H211.6V186H174.4ZM155.8 313.5H127.9V288H155.8V313.5ZM258.1 313.5H230.2V288H258.1V313.5Z" fill="#383838"/>
<rect x="0.5" y="0.5" width="385" height="472" rx="17.5" stroke="black"/>
</svg>
