<svg width="48" height="48" viewBox="0 0 48 48" fill="none" xmlns="http://www.w3.org/2000/svg">
<circle cx="24" cy="24" r="24" fill="#FF3333"/>
<path d="M36.4567 16.4423C36.1577 15.0873 35.2767 14.0202 34.158 13.6581C32.1304 13 24 13 24 13C24 13 15.8696 13 13.842 13.6581C12.7233 14.0203 11.8423 15.0873 11.5433 16.4423C11 18.8982 11 24.0222 11 24.0222C11 24.0222 11 29.1463 11.5433 31.6022C11.8423 32.9572 12.7233 33.9798 13.842 34.3419C15.8696 35 24 35 24 35C24 35 32.1304 35 34.158 34.3419C35.2767 33.9798 36.1577 32.9572 36.4567 31.6022C37 29.1463 37 24.0222 37 24.0222C37 24.0222 37 18.8982 36.4567 16.4423ZM21.3409 28.6745V19.37L28.1363 24.0223L21.3409 28.6745Z" fill="#E6EEE0"/>
</svg>
