<svg width="1440" height="1024" viewBox="0 0 1440 1024" fill="none" xmlns="http://www.w3.org/2000/svg">
<g clip-path="url(#clip0)">
<rect width="1440" height="1024" fill="black"/>
<rect width="1440" height="1024" fill="black"/>
<path d="M855.688 468.9C882.594 513.514 913.286 556.308 942.22 599.571L1137.63 605.276C1144.49 605.276 1147.8 596.533 1152.21 592.122C1163.27 581.061 1174.94 571.231 1185.49 559.553C1203.33 539.818 1220.18 518.95 1235.18 496.952C1236.03 495.708 1248.42 478.881 1245.4 477.22C1240.69 474.627 1229.14 476.845 1224.01 476.586C1184.5 474.599 1144.98 472.394 1105.62 468.425C1042.85 462.095 978.931 461.38 915.912 461.213C896.788 461.163 877.664 461.213 858.54 461.213C851.239 461.213 849.711 458.989 855.688 468.9Z" fill="#FF002E"/>
<path d="M263.13 944.717C295.561 956.894 327.03 969.828 361.501 974.803C375.913 978.407 369.421 981.867 384.524 981.867C387.857 981.867 396.969 983.447 399.175 980.69C399.836 979.863 410.958 975.17 412.256 974.934C435.037 970.792 459.179 953.744 477.401 939.484C490.206 929.463 493.36 929.581 493.36 914.891C493.36 908.239 491.005 902.441 491.005 896.054C491.005 877.353 483.941 857.903 483.941 838.104C483.941 809.195 475.051 779.419 472.168 750.591C469.106 719.967 464.752 689.552 460.918 659.022C460.487 655.59 457.73 614.775 452.285 617.424C424.693 630.847 403.394 656.842 379.945 676.028C337.031 711.14 304.632 757.227 269.54 799.776C245.073 829.443 222.305 860.763 200.078 892.13C196.001 897.884 179.378 913.354 191.183 918.816C214.12 929.428 239.484 935.838 263.13 944.717Z" fill="#FF002E"/>
<path d="M380.331 958.626C365.798 978.542 345.866 995.272 330.296 1014.73C323.43 1014.73 333.501 1023.37 340.367 1023.37H376.334C423.885 1023.37 467.556 1020.49 515.5 1020.49H635.5C663.274 1020.49 696.814 1020.14 724.5 1020.49C748.693 1020.79 767.202 1023.37 791.318 1023.37C796.182 1023.37 806.197 1025.17 810.82 1022.73C815.893 1020.04 813.047 1010.92 815.296 1006.42C819.353 998.309 823.241 986.832 828.084 979.567C851.055 945.111 863.973 903.721 889.788 870.865C904.945 851.574 915.701 830.555 928.153 809.801C938.755 792.131 949.669 759.634 974.192 766.64C986.53 770.165 1003.61 770.161 1016.63 770.157L1017.83 770.157C1044.79 770.157 1074.91 773.986 1101.28 768.558C1121.42 764.412 1134.53 762.36 1143.32 744.26C1148.64 733.297 1149.59 721.413 1155.47 710.371C1159.02 703.692 1158.71 696.053 1163.46 689.91C1167.12 685.177 1169.44 682.705 1170.49 676.642C1172.56 664.776 1180.49 651.891 1185.04 640.514C1190.39 627.144 1193.02 614.451 1195.75 600.391C1197.72 590.265 1150.21 591.892 1143 591.759C1112.98 591.203 1081.28 588.059 1051.24 584.565C1010.32 579.807 967.753 583.127 926.555 583.127C902.589 583.127 869.016 579.861 846.947 590.16C837.445 594.595 830.886 606.608 828.084 617.815C819.419 652.476 801.005 685.664 786.362 718.204C773.689 746.367 759.611 774.027 747.518 802.447C736.464 828.424 721.343 851.821 709.472 877.26C699.901 897.768 692.869 908.271 671.107 908.271H527.397C494.294 908.271 461.362 911.149 428.287 911.149C422.364 911.149 417.578 911.468 413.101 915.944C400.174 928.871 390.993 944.015 380.331 958.626Z" fill="#FFE03B"/>
<path d="M1155.5 294.055C1186.36 281.917 1221.12 280.043 1253.9 277.064C1273.63 275.27 1292.95 272.598 1312.55 269.97C1321.21 268.807 1329.19 267.796 1337.95 267.248C1341.88 267.002 1345.29 265.176 1349.17 264.691C1355.35 263.918 1361.39 264.567 1367.48 262.876C1375.49 260.653 1384.01 258.422 1392.31 258.422C1397.91 258.422 1398.58 255.453 1404.93 255.453" stroke="#CAFF9E" stroke-width="4" stroke-linecap="round" stroke-linejoin="round"/>
<path d="M1168.86 369.776C1200.66 371.689 1232.52 372.746 1264.37 372.746C1284.53 372.746 1304.33 375.582 1324.42 375.715C1340.03 375.819 1355.52 376.885 1371.11 377.2C1382.64 377.433 1393.34 381.654 1404.93 381.654" stroke="#CAFF9E" stroke-width="4" stroke-linecap="round" stroke-linejoin="round"/>
<path d="M1151.69 297.051C1149.11 288.583 1145.15 282.641 1137.68 277.658C1134.91 275.814 1129.2 271.25 1127.98 276.458C1126.45 283.014 1126.48 289.313 1127.98 295.803C1128.24 296.924 1130.4 304.362 1129.56 304.731C1126.54 306.077 1123.07 305.653 1119.72 305.691C1112.32 305.776 1104.98 306.556 1097.55 306.556C1084.21 306.556 1071.18 308.406 1057.9 309.34C1053.85 309.624 1044.3 308.848 1043.74 314.812C1042.7 325.675 1065.97 328.189 1072.87 328.829C1082.08 329.683 1091.89 327.807 1099.85 332.669C1109.37 338.489 1081.23 351.342 1078.25 352.83C1075.99 353.958 1059.75 360.574 1064.62 365.983C1067.56 369.258 1076.74 368.049 1080.46 367.711C1085 367.298 1088.98 364.908 1093.32 364.495C1094.04 364.427 1099.45 362.7 1099.66 362.911C1102.12 365.372 1100.71 373.906 1100.71 376.927C1100.71 386.207 1098.43 400.917 1105.03 408.465C1112.1 416.54 1120.1 398.64 1121.45 393.392C1122.84 388.016 1126.41 377.6 1133.16 377.407C1144.1 377.095 1150.81 389.871 1156.21 398.145C1157.22 399.698 1162.55 408.491 1165.13 407.553C1169.23 406.065 1168.94 397.065 1168.97 393.824C1169.04 388.338 1172.22 375.361 1168.97 370.5" stroke="#CAFF9E" stroke-width="4" stroke-linecap="round" stroke-linejoin="round"/>
<circle cx="1047" cy="345" r="3" fill="#C400E4"/>
<circle cx="1051" cy="373" r="3" fill="#C400E4"/>
<circle cx="1057" cy="402" r="3" fill="#C400E4"/>
<circle cx="1067" cy="424" r="3" fill="#C400E4"/>
<circle cx="1091" cy="429" r="3" fill="#C400E4"/>
<circle cx="1043" cy="423" r="3" fill="#C400E4"/>
<circle cx="1047" cy="451" r="3" fill="#C400E4"/>
<circle cx="1072" cy="443" r="3" fill="#C400E4"/>
<circle cx="1117" cy="427" r="3" fill="#C400E4"/>
<circle cx="1114" cy="465" r="3" fill="#C400E4"/>
<circle cx="1139" cy="457" r="3" fill="#C400E4"/>
<circle cx="1085" cy="405" r="3" fill="#C400E4"/>
<circle cx="1085" cy="451" r="3" fill="#C400E4"/>
<circle cx="1104" cy="446" r="3" fill="#C400E4"/>
<circle cx="1133" cy="414" r="3" fill="#C400E4"/>
<circle cx="1137" cy="442" r="3" fill="#C400E4"/>
<circle cx="1162" cy="434" r="3" fill="#C400E4"/>
<circle cx="105.545" cy="763.831" r="3.38323" fill="#F19EFF"/>
<path d="M95.7927 752.687C95.9614 754.907 96.5477 757.08 96.6043 759.316C96.2533 759.433 96.1177 759.827 95.9217 760.135C95.492 760.81 94.7591 761.332 94.3138 762.016C93.1759 763.763 91.706 765.293 90.461 766.953C89.6333 768.057 89.1963 768.983 88.9669 770.359C88.8862 770.843 88.509 771.739 89.202 771.739C91.6498 771.739 94.0471 771.329 96.4905 771.329C98.2023 771.329 99.9582 770.933 101.655 771.064C102.105 771.099 103.126 771.222 103.43 771.633C104.125 772.571 104.488 773.682 105.159 774.636C106.106 775.982 107.038 777.446 107.518 779.035C107.566 779.194 108.449 781.482 108.815 780.385C109.179 779.293 109.29 777.902 109.406 776.76C109.604 774.824 109.957 772.665 110.559 770.814C110.786 770.116 111.113 768.682 111.773 768.258C112.273 767.936 112.968 767.819 113.532 767.674C114.734 767.365 115.944 767.105 117.15 766.817C117.632 766.702 122.449 765.095 121.966 764.716C121.466 764.323 120.567 764.169 119.979 763.957C119.086 763.636 118.196 763.407 117.271 763.199C115.543 762.811 113.495 762.104 112.197 760.848C111.775 760.439 110.962 759.641 111.348 759.013C111.788 758.297 111.999 757.246 112.243 756.449C112.679 755.021 113.434 753.703 114.154 752.407C114.325 752.1 115.385 749.846 114.731 749.896C113.832 749.965 112.59 750.712 111.833 751.186C110.338 752.12 108.601 752.688 107.063 753.567C105.194 754.635 103.895 753.607 102.505 752.247C101.535 751.299 97.0593 746.162 95.9217 747.462C95.5557 747.88 95.6486 748.521 95.6486 749.032C95.6486 750.254 95.7002 751.468 95.7927 752.687Z" stroke="#F19EFF" stroke-width="4" stroke-linecap="round" stroke-linejoin="round"/>
<circle cx="203.753" cy="717.578" r="3.38323" fill="#F19EFF"/>
<path d="M194.001 706.435C194.169 708.655 194.756 710.828 194.812 713.064C194.461 713.181 194.326 713.575 194.13 713.883C193.7 714.558 192.967 715.08 192.522 715.764C191.384 717.511 189.914 719.041 188.669 720.701C187.841 721.805 187.404 722.73 187.175 724.106C187.094 724.591 186.717 725.487 187.41 725.487C189.858 725.487 192.255 725.077 194.699 725.077C196.41 725.077 198.166 724.681 199.863 724.812C200.313 724.846 201.334 724.97 201.638 725.381C202.333 726.318 202.696 727.43 203.367 728.384C204.314 729.73 205.246 731.194 205.726 732.783C205.774 732.942 206.657 735.229 207.023 734.133C207.387 733.041 207.498 731.65 207.614 730.507C207.812 728.572 208.165 726.413 208.767 724.561C208.994 723.864 209.321 722.43 209.981 722.006C210.481 721.684 211.176 721.566 211.74 721.422C212.942 721.113 214.152 720.853 215.358 720.565C215.84 720.45 220.657 718.843 220.174 718.464C219.674 718.07 218.775 717.917 218.187 717.705C217.294 717.384 216.404 717.154 215.479 716.947C213.751 716.559 211.703 715.852 210.405 714.596C209.983 714.187 209.17 713.388 209.556 712.76C209.996 712.045 210.207 710.994 210.451 710.197C210.887 708.769 211.642 707.451 212.362 706.154C212.533 705.847 213.593 703.594 212.939 703.644C212.04 703.713 210.798 704.46 210.041 704.933C208.546 705.868 206.809 706.436 205.271 707.315C203.402 708.383 202.103 707.355 200.713 705.995C199.743 705.047 195.267 699.909 194.13 701.21C193.764 701.628 193.857 702.269 193.857 702.779C193.857 704.002 193.908 705.216 194.001 706.435Z" stroke="#F19EFF" stroke-width="4" stroke-linecap="round" stroke-linejoin="round"/>
<circle cx="256.753" cy="720.578" r="3.38323" fill="#F19EFF"/>
<path d="M247.001 709.435C247.169 711.655 247.756 713.828 247.812 716.064C247.461 716.181 247.326 716.575 247.13 716.883C246.7 717.558 245.967 718.08 245.522 718.764C244.384 720.511 242.914 722.041 241.669 723.701C240.841 724.805 240.404 725.73 240.175 727.106C240.094 727.591 239.717 728.487 240.41 728.487C242.858 728.487 245.255 728.077 247.699 728.077C249.41 728.077 251.166 727.681 252.863 727.812C253.313 727.846 254.334 727.97 254.638 728.381C255.333 729.318 255.696 730.43 256.367 731.384C257.314 732.73 258.246 734.194 258.726 735.783C258.774 735.942 259.657 738.229 260.023 737.133C260.387 736.041 260.498 734.65 260.614 733.507C260.812 731.572 261.165 729.413 261.767 727.561C261.994 726.864 262.321 725.43 262.981 725.006C263.481 724.684 264.176 724.566 264.74 724.422C265.942 724.113 267.152 723.853 268.358 723.565C268.84 723.45 273.657 721.843 273.174 721.464C272.674 721.07 271.775 720.917 271.187 720.705C270.294 720.384 269.404 720.154 268.479 719.947C266.751 719.559 264.703 718.852 263.405 717.596C262.983 717.187 262.17 716.388 262.556 715.76C262.996 715.045 263.207 713.994 263.451 713.197C263.887 711.769 264.642 710.451 265.362 709.154C265.533 708.847 266.593 706.594 265.939 706.644C265.04 706.713 263.798 707.46 263.041 707.933C261.546 708.868 259.809 709.436 258.271 710.315C256.402 711.383 255.103 710.355 253.713 708.995C252.743 708.047 248.267 702.909 247.13 704.21C246.764 704.628 246.857 705.269 246.857 705.779C246.857 707.002 246.908 708.216 247.001 709.435Z" stroke="#F19EFF" stroke-width="4" stroke-linecap="round" stroke-linejoin="round"/>
<circle cx="276.753" cy="581.578" r="3.38323" fill="#F19EFF"/>
<path d="M267.001 570.435C267.169 572.655 267.756 574.828 267.812 577.064C267.461 577.181 267.326 577.575 267.13 577.883C266.7 578.558 265.967 579.08 265.522 579.764C264.384 581.511 262.914 583.041 261.669 584.701C260.841 585.805 260.404 586.73 260.175 588.106C260.094 588.591 259.717 589.487 260.41 589.487C262.858 589.487 265.255 589.077 267.699 589.077C269.41 589.077 271.166 588.681 272.863 588.812C273.313 588.846 274.334 588.97 274.638 589.381C275.333 590.318 275.696 591.43 276.367 592.384C277.314 593.73 278.246 595.194 278.726 596.783C278.774 596.942 279.657 599.229 280.023 598.133C280.387 597.041 280.498 595.65 280.614 594.507C280.812 592.572 281.165 590.413 281.767 588.561C281.994 587.864 282.321 586.43 282.981 586.006C283.481 585.684 284.176 585.566 284.74 585.422C285.942 585.113 287.152 584.853 288.358 584.565C288.84 584.45 293.657 582.843 293.174 582.464C292.674 582.07 291.775 581.917 291.187 581.705C290.294 581.384 289.404 581.154 288.479 580.947C286.751 580.559 284.703 579.852 283.405 578.596C282.983 578.187 282.17 577.388 282.556 576.76C282.996 576.045 283.207 574.994 283.451 574.197C283.887 572.769 284.642 571.451 285.362 570.154C285.533 569.847 286.593 567.594 285.939 567.644C285.04 567.713 283.798 568.46 283.041 568.933C281.546 569.868 279.809 570.436 278.271 571.315C276.402 572.383 275.103 571.355 273.713 569.995C272.743 569.047 268.267 563.909 267.13 565.21C266.764 565.628 266.857 566.269 266.857 566.779C266.857 568.002 266.908 569.216 267.001 570.435Z" stroke="#F19EFF" stroke-width="4" stroke-linecap="round" stroke-linejoin="round"/>
<circle cx="199.753" cy="497.578" r="3.38323" fill="#F19EFF"/>
<path d="M190.001 486.435C190.169 488.655 190.756 490.828 190.812 493.064C190.461 493.181 190.326 493.575 190.13 493.883C189.7 494.558 188.967 495.08 188.522 495.764C187.384 497.511 185.914 499.041 184.669 500.701C183.841 501.805 183.404 502.73 183.175 504.106C183.094 504.591 182.717 505.487 183.41 505.487C185.858 505.487 188.255 505.077 190.699 505.077C192.41 505.077 194.166 504.681 195.863 504.812C196.313 504.846 197.334 504.97 197.638 505.381C198.333 506.318 198.696 507.43 199.367 508.384C200.314 509.73 201.246 511.194 201.726 512.783C201.774 512.942 202.657 515.229 203.023 514.133C203.387 513.041 203.498 511.65 203.614 510.507C203.812 508.572 204.165 506.413 204.767 504.561C204.994 503.864 205.321 502.43 205.981 502.006C206.481 501.684 207.176 501.566 207.74 501.422C208.942 501.113 210.152 500.853 211.358 500.565C211.84 500.45 216.657 498.843 216.174 498.464C215.674 498.07 214.775 497.917 214.187 497.705C213.294 497.384 212.404 497.154 211.479 496.947C209.751 496.559 207.703 495.852 206.405 494.596C205.983 494.187 205.17 493.388 205.556 492.76C205.996 492.045 206.207 490.994 206.451 490.197C206.887 488.769 207.642 487.451 208.362 486.154C208.533 485.847 209.593 483.594 208.939 483.644C208.04 483.713 206.798 484.46 206.041 484.933C204.546 485.868 202.809 486.436 201.271 487.315C199.402 488.383 198.103 487.355 196.713 485.995C195.743 485.047 191.267 479.909 190.13 481.21C189.764 481.628 189.857 482.269 189.857 482.779C189.857 484.002 189.908 485.216 190.001 486.435Z" stroke="#F19EFF" stroke-width="4" stroke-linecap="round" stroke-linejoin="round"/>
<circle cx="223.753" cy="616.578" r="3.38323" fill="#F19EFF"/>
<path d="M214.001 605.435C214.169 607.655 214.756 609.828 214.812 612.064C214.461 612.181 214.326 612.575 214.13 612.883C213.7 613.558 212.967 614.08 212.522 614.764C211.384 616.511 209.914 618.041 208.669 619.701C207.841 620.805 207.404 621.73 207.175 623.106C207.094 623.591 206.717 624.487 207.41 624.487C209.858 624.487 212.255 624.077 214.699 624.077C216.41 624.077 218.166 623.681 219.863 623.812C220.313 623.846 221.334 623.97 221.638 624.381C222.333 625.318 222.696 626.43 223.367 627.384C224.314 628.73 225.246 630.194 225.726 631.783C225.774 631.942 226.657 634.229 227.023 633.133C227.387 632.041 227.498 630.65 227.614 629.507C227.812 627.572 228.165 625.413 228.767 623.561C228.994 622.864 229.321 621.43 229.981 621.006C230.481 620.684 231.176 620.566 231.74 620.422C232.942 620.113 234.152 619.853 235.358 619.565C235.84 619.45 240.657 617.843 240.174 617.464C239.674 617.07 238.775 616.917 238.187 616.705C237.294 616.384 236.404 616.154 235.479 615.947C233.751 615.559 231.703 614.852 230.405 613.596C229.983 613.187 229.17 612.388 229.556 611.76C229.996 611.045 230.207 609.994 230.451 609.197C230.887 607.769 231.642 606.451 232.362 605.154C232.533 604.847 233.593 602.594 232.939 602.644C232.04 602.713 230.798 603.46 230.041 603.933C228.546 604.868 226.809 605.436 225.271 606.315C223.402 607.383 222.103 606.355 220.713 604.995C219.743 604.047 215.267 598.909 214.13 600.21C213.764 600.628 213.857 601.269 213.857 601.779C213.857 603.002 213.908 604.216 214.001 605.435Z" stroke="#F19EFF" stroke-width="4" stroke-linecap="round" stroke-linejoin="round"/>
<circle cx="171.753" cy="565.578" r="3.38323" fill="#F19EFF"/>
<path d="M162.001 554.435C162.169 556.655 162.756 558.828 162.812 561.064C162.461 561.181 162.326 561.575 162.13 561.883C161.7 562.558 160.967 563.08 160.522 563.764C159.384 565.511 157.914 567.041 156.669 568.701C155.841 569.805 155.404 570.73 155.175 572.106C155.094 572.591 154.717 573.487 155.41 573.487C157.858 573.487 160.255 573.077 162.699 573.077C164.41 573.077 166.166 572.681 167.863 572.812C168.313 572.846 169.334 572.97 169.638 573.381C170.333 574.318 170.696 575.43 171.367 576.384C172.314 577.73 173.246 579.194 173.726 580.783C173.774 580.942 174.657 583.229 175.023 582.133C175.387 581.041 175.498 579.65 175.614 578.507C175.812 576.572 176.165 574.413 176.767 572.561C176.994 571.864 177.321 570.43 177.981 570.006C178.481 569.684 179.176 569.566 179.74 569.422C180.942 569.113 182.152 568.853 183.358 568.565C183.84 568.45 188.657 566.843 188.174 566.464C187.674 566.07 186.775 565.917 186.187 565.705C185.294 565.384 184.404 565.154 183.479 564.947C181.751 564.559 179.703 563.852 178.405 562.596C177.983 562.187 177.17 561.388 177.556 560.76C177.996 560.045 178.207 558.994 178.451 558.197C178.887 556.769 179.642 555.451 180.362 554.154C180.533 553.847 181.593 551.594 180.939 551.644C180.04 551.713 178.798 552.46 178.041 552.933C176.546 553.868 174.809 554.436 173.271 555.315C171.402 556.383 170.103 555.355 168.713 553.995C167.743 553.047 163.267 547.909 162.13 549.21C161.764 549.628 161.857 550.269 161.857 550.779C161.857 552.002 161.908 553.216 162.001 554.435Z" stroke="#F19EFF" stroke-width="4" stroke-linecap="round" stroke-linejoin="round"/>
<circle cx="72.7533" cy="636.578" r="3.38323" fill="#F19EFF"/>
<path d="M63.0008 625.435C63.1694 627.655 63.7557 629.828 63.8123 632.064C63.4613 632.181 63.3257 632.575 63.1297 632.883C62.7 633.558 61.9671 634.08 61.5218 634.764C60.3839 636.511 58.914 638.041 57.669 639.701C56.8413 640.805 56.4043 641.73 56.1749 643.106C56.0942 643.591 55.717 644.487 56.41 644.487C58.8579 644.487 61.2551 644.077 63.6985 644.077C65.4103 644.077 67.1662 643.681 68.8634 643.812C69.313 643.846 70.3341 643.97 70.6381 644.381C71.3328 645.318 71.6963 646.43 72.3673 647.384C73.3137 648.73 74.2464 650.194 74.726 651.783C74.7741 651.942 75.6574 654.229 76.0229 653.133C76.3869 652.041 76.4979 650.65 76.6145 649.507C76.812 647.572 77.1649 645.413 77.7673 643.561C77.9943 642.864 78.321 641.43 78.9808 641.006C79.4809 640.684 80.1763 640.566 80.7403 640.422C81.9425 640.113 83.1517 639.853 84.358 639.565C84.8397 639.45 89.6571 637.843 89.174 637.464C88.6736 637.07 87.7754 636.917 87.1869 636.705C86.294 636.384 85.4037 636.154 84.4794 635.947C82.7513 635.559 80.7026 634.852 79.4055 633.596C78.9833 633.187 78.1695 632.388 78.5561 631.76C78.9962 631.045 79.2074 629.994 79.451 629.197C79.8873 627.769 80.6422 626.451 81.3622 625.154C81.5328 624.847 82.5925 622.594 81.9386 622.644C81.0402 622.713 79.7984 623.46 79.0415 623.933C77.5464 624.868 75.8085 625.436 74.271 626.315C72.4022 627.383 71.1034 626.355 69.7128 624.995C68.7427 624.047 64.2673 618.909 63.1297 620.21C62.7637 620.628 62.8567 621.269 62.8567 621.779C62.8567 623.002 62.9082 624.216 63.0008 625.435Z" stroke="#F19EFF" stroke-width="4" stroke-linecap="round" stroke-linejoin="round"/>
<circle cx="138.753" cy="665.578" r="3.38323" fill="#F19EFF"/>
<path d="M129.001 654.435C129.169 656.655 129.756 658.828 129.812 661.064C129.461 661.181 129.326 661.575 129.13 661.883C128.7 662.558 127.967 663.08 127.522 663.764C126.384 665.511 124.914 667.041 123.669 668.701C122.841 669.805 122.404 670.73 122.175 672.106C122.094 672.591 121.717 673.487 122.41 673.487C124.858 673.487 127.255 673.077 129.699 673.077C131.41 673.077 133.166 672.681 134.863 672.812C135.313 672.846 136.334 672.97 136.638 673.381C137.333 674.318 137.696 675.43 138.367 676.384C139.314 677.73 140.246 679.194 140.726 680.783C140.774 680.942 141.657 683.229 142.023 682.133C142.387 681.041 142.498 679.65 142.614 678.507C142.812 676.572 143.165 674.413 143.767 672.561C143.994 671.864 144.321 670.43 144.981 670.006C145.481 669.684 146.176 669.566 146.74 669.422C147.942 669.113 149.152 668.853 150.358 668.565C150.84 668.45 155.657 666.843 155.174 666.464C154.674 666.07 153.775 665.917 153.187 665.705C152.294 665.384 151.404 665.154 150.479 664.947C148.751 664.559 146.703 663.852 145.405 662.596C144.983 662.187 144.17 661.388 144.556 660.76C144.996 660.045 145.207 658.994 145.451 658.197C145.887 656.769 146.642 655.451 147.362 654.154C147.533 653.847 148.593 651.594 147.939 651.644C147.04 651.713 145.798 652.46 145.041 652.933C143.546 653.868 141.809 654.436 140.271 655.315C138.402 656.383 137.103 655.355 135.713 653.995C134.743 653.047 130.267 647.909 129.13 649.21C128.764 649.628 128.857 650.269 128.857 650.779C128.857 652.002 128.908 653.216 129.001 654.435Z" stroke="#F19EFF" stroke-width="4" stroke-linecap="round" stroke-linejoin="round"/>
<circle cx="289.753" cy="665.578" r="3.38323" fill="#F19EFF"/>
<path d="M280.001 654.435C280.169 656.655 280.756 658.828 280.812 661.064C280.461 661.181 280.326 661.575 280.13 661.883C279.7 662.558 278.967 663.08 278.522 663.764C277.384 665.511 275.914 667.041 274.669 668.701C273.841 669.805 273.404 670.73 273.175 672.106C273.094 672.591 272.717 673.487 273.41 673.487C275.858 673.487 278.255 673.077 280.699 673.077C282.41 673.077 284.166 672.681 285.863 672.812C286.313 672.846 287.334 672.97 287.638 673.381C288.333 674.318 288.696 675.43 289.367 676.384C290.314 677.73 291.246 679.194 291.726 680.783C291.774 680.942 292.657 683.229 293.023 682.133C293.387 681.041 293.498 679.65 293.614 678.507C293.812 676.572 294.165 674.413 294.767 672.561C294.994 671.864 295.321 670.43 295.981 670.006C296.481 669.684 297.176 669.566 297.74 669.422C298.942 669.113 300.152 668.853 301.358 668.565C301.84 668.45 306.657 666.843 306.174 666.464C305.674 666.07 304.775 665.917 304.187 665.705C303.294 665.384 302.404 665.154 301.479 664.947C299.751 664.559 297.703 663.852 296.405 662.596C295.983 662.187 295.17 661.388 295.556 660.76C295.996 660.045 296.207 658.994 296.451 658.197C296.887 656.769 297.642 655.451 298.362 654.154C298.533 653.847 299.593 651.594 298.939 651.644C298.04 651.713 296.798 652.46 296.041 652.933C294.546 653.868 292.809 654.436 291.271 655.315C289.402 656.383 288.103 655.355 286.713 653.995C285.743 653.047 281.267 647.909 280.13 649.21C279.764 649.628 279.857 650.269 279.857 650.779C279.857 652.002 279.908 653.216 280.001 654.435Z" stroke="#F19EFF" stroke-width="4" stroke-linecap="round" stroke-linejoin="round"/>
<circle cx="158.753" cy="819.578" r="3.38323" fill="#F19EFF"/>
<path d="M149.001 808.435C149.169 810.655 149.756 812.828 149.812 815.064C149.461 815.181 149.326 815.575 149.13 815.883C148.7 816.558 147.967 817.08 147.522 817.764C146.384 819.511 144.914 821.041 143.669 822.701C142.841 823.805 142.404 824.73 142.175 826.106C142.094 826.591 141.717 827.487 142.41 827.487C144.858 827.487 147.255 827.077 149.699 827.077C151.41 827.077 153.166 826.681 154.863 826.812C155.313 826.846 156.334 826.97 156.638 827.381C157.333 828.318 157.696 829.43 158.367 830.384C159.314 831.73 160.246 833.194 160.726 834.783C160.774 834.942 161.657 837.229 162.023 836.133C162.387 835.041 162.498 833.65 162.614 832.507C162.812 830.572 163.165 828.413 163.767 826.561C163.994 825.864 164.321 824.43 164.981 824.006C165.481 823.684 166.176 823.566 166.74 823.422C167.942 823.113 169.152 822.853 170.358 822.565C170.84 822.45 175.657 820.843 175.174 820.464C174.674 820.07 173.775 819.917 173.187 819.705C172.294 819.384 171.404 819.154 170.479 818.947C168.751 818.559 166.703 817.852 165.405 816.596C164.983 816.187 164.17 815.388 164.556 814.76C164.996 814.045 165.207 812.994 165.451 812.197C165.887 810.769 166.642 809.451 167.362 808.154C167.533 807.847 168.593 805.594 167.939 805.644C167.04 805.713 165.798 806.46 165.041 806.933C163.546 807.868 161.809 808.436 160.271 809.315C158.402 810.383 157.103 809.355 155.713 807.995C154.743 807.047 150.267 801.909 149.13 803.21C148.764 803.628 148.857 804.269 148.857 804.779C148.857 806.002 148.908 807.216 149.001 808.435Z" stroke="#F19EFF" stroke-width="4" stroke-linecap="round" stroke-linejoin="round"/>
<path d="M540.406 156.055C543.161 151.538 547.203 140.338 554.434 142.547C566.6 146.264 572.362 168.094 575.215 178.394C580.493 197.455 590.859 248.546 559.629 249.57C528.958 250.576 529.636 205.81 531.444 184.109C532.356 173.169 542.976 128 559.109 128" stroke="#3BADFF" stroke-width="5" stroke-linecap="round" stroke-linejoin="round"/>
<path d="M605.867 188.785C606.049 198.435 605.807 232.123 619.895 235.023C627.339 236.556 630.015 227.44 631.584 222.035C633.423 215.702 631.503 196.397 634.182 202.423C637.33 209.507 644.701 236.237 656.002 232.685C667.617 229.035 672.071 189.499 665.353 180.862C662.018 176.574 661.555 202.477 662.106 206.059C663.457 214.838 679.064 205.759 680.16 209.047C683.027 217.646 678.581 245.797 691.33 249.44C699.63 251.812 705.304 226.975 706.396 221.515" stroke="#3BADFF" stroke-width="5" stroke-linecap="round" stroke-linejoin="round"/>
<path d="M512.352 345.423C526.892 339.916 536.936 337.625 543.783 323.343C547.985 314.579 559.023 285.669 544.043 280.222C533.937 276.548 530.198 290.673 528.197 297.367C521.877 318.515 525.847 332.917 539.497 350.229C558.992 374.955 585.727 419.375 539.887 435.042C506.577 446.427 503 410.533 503 387.505" stroke="#3BADFF" stroke-width="5" stroke-linecap="round" stroke-linejoin="round"/>
<path d="M552.096 326.72C554.472 330.879 560.058 352.177 567.292 352.177C576.576 352.177 566.321 323.959 571.188 321.525C574.761 319.739 589.221 344.665 589.502 344.384C590.776 343.11 589.299 319.241 589.502 333.474C589.848 357.708 595.431 382.092 604.568 404.52C606.534 409.345 607.273 413.967 602.36 406.468C595.449 395.92 596.516 381.374 596.516 369.322C596.516 356.867 583.174 342.602 587.684 330.877C594.086 314.231 612.881 331.293 612.881 342.047C612.881 346.25 611.251 349.133 608.724 352.437C606.67 355.123 597.765 357.744 600.932 358.931C610.314 362.45 617.304 347.057 617.557 340.228C617.678 336.95 615.478 328.157 615.478 328.539C615.478 347.905 629.291 367.782 631.454 387.246C633.222 403.163 623.036 374.237 622.232 370.621C619.139 356.702 615.219 341.578 615.219 327.24C615.219 321.489 614.649 316.742 617.557 311.654C620.71 306.135 631.264 312.254 632.623 316.33C634.763 322.751 636.778 341.056 632.883 347.242C630.344 351.274 626.663 352.751 633.922 347.761C639.964 343.607 643.628 339.231 645.092 331.916C645.981 327.471 645.611 322.782 645.611 318.278C645.611 312.424 645.331 330.447 647.949 335.682C652.172 344.127 658.241 345.505 657.171 333.734C656.476 326.087 654.379 311.392 646.131 308.537C635.942 305.01 644.957 316.641 649.248 318.668C656.822 322.244 667.837 319.565 668.86 310.355C670.632 294.412 668.99 307.871 668.99 316.07C668.99 322.134 673.034 323.115 676.004 327.24C678.598 330.843 685.017 351.468 685.355 336.591C685.733 319.976 682.791 304.769 680.679 288.405C680.506 287.06 677.988 274.394 679.77 277.365C685.014 286.104 687.993 297.098 691.2 306.718C692.777 311.449 714.153 345.533 720.423 326.72" stroke="#3BADFF" stroke-width="5" stroke-linecap="round" stroke-linejoin="round"/>
<path d="M672.44 290.198C689.098 281.869 704.411 269.422 720.349 261.453" stroke="#3BADFF" stroke-width="4" stroke-linecap="round" stroke-linejoin="round"/>
<path d="M557.528 492.418C554.077 544.613 543.929 625.932 607.114 648.164C618.147 652.046 629.74 655.086 641.391 656.484C657.097 658.369 645.47 641.215 642.057 634.52C632.867 616.495 639.698 637.417 641.391 645.169C644.527 659.528 655.035 677.214 655.035 691.76C655.035 694.512 619.575 693.091 614.435 693.091" stroke="#3BADFF" stroke-width="9" stroke-linecap="round" stroke-linejoin="round"/>
</g>
<defs>
<clipPath id="clip0">
<rect width="1440" height="1024" fill="white"/>
</clipPath>
</defs>
</svg>
