<svg width="1440" height="1024" viewBox="0 0 1440 1024" fill="none" xmlns="http://www.w3.org/2000/svg">
<g clip-path="url(#clip0)">
<rect width="1440" height="1024" fill="black"/>
<rect width="1440" height="1024" fill="black"/>
<path d="M413.468 465.311C523.281 472.95 633.045 475.804 743.038 479.324C745.239 479.394 821.152 478.173 813.66 487.731C785.562 523.58 720.127 536.839 679.702 547.143C639.633 557.357 598.926 565.916 558.075 572.366C548.288 573.911 518.76 575.951 528.649 576.569C605.421 581.368 681.858 589.743 758.732 593.384C760.426 593.464 919.69 597.351 885.964 618.887C860.301 635.274 823.407 639.48 794.604 643.548C736.082 651.814 676.89 654.304 618.048 659.242C573.085 663.015 527.182 666.062 482.689 674.095C472.473 675.94 465.474 676.484 477.644 680.541C490.177 684.718 523.79 691.724 532.012 693.432C633.455 714.511 739.58 716.921 840.004 740.234C862.536 745.464 828.906 753.167 825.991 753.966C792.761 763.067 758.275 767.777 724.262 772.742C693.806 777.188 662.682 780.156 632.621 787.035C621.74 789.524 613.027 792.645 629.538 796.283C704.845 812.876 788.49 801.584 861.863 823.467C874.988 827.381 826.206 839.67 825.991 839.721C723.673 864.138 614.339 848.176 513.236 873.911C487.41 880.485 531.674 888.341 532.292 888.484C591.328 902.128 651.886 908.526 712.211 912.866C802.51 919.362 893.022 919.311 983.49 919.311" stroke="#CAFF9E" stroke-width="9" stroke-linecap="round" stroke-linejoin="round"/>
<circle cx="198.5" cy="221.5" r="115.5" fill="black" stroke="#CAFF9E" stroke-width="6"/>
<circle cx="1200.5" cy="763.5" r="115.5" transform="rotate(17.4077 1200.5 763.5)" fill="black" stroke="#CAFF9E" stroke-width="6"/>
<circle cx="219.5" cy="777.5" r="115.5" transform="rotate(44.7651 219.5 777.5)" fill="black" stroke="#CAFF9E" stroke-width="6"/>
<circle cx="1164.58" cy="236.583" r="115.5" transform="rotate(-4.23496 1164.58 236.583)" fill="black" stroke="#CAFF9E" stroke-width="6"/>
<path d="M190.74 209.644L167.899 201.399C160.005 198.55 151.173 200.997 145.872 207.503V207.503C136.141 219.446 143.279 237.446 158.539 239.565V239.565C166.361 240.65 174.106 236.989 178.21 230.241L190.74 209.644ZM190.74 209.644L216.214 218.839C225.632 222.239 236.119 217.878 240.412 208.832V208.832C245.679 197.735 239.433 184.531 227.489 181.666V181.666C220.229 179.925 212.616 182.519 207.93 188.33L190.74 209.644Z" stroke="#E9FFD6" stroke-width="5"/>
<path d="M1196.64 749.865L1177.31 735.165C1170.63 730.085 1161.47 729.778 1154.47 734.399V734.399C1141.61 742.884 1143.04 762.196 1156.96 768.782V768.782C1164.1 772.159 1172.59 770.982 1178.52 765.771L1196.64 749.865ZM1196.64 749.865L1218.2 766.261C1226.17 772.322 1237.48 771.298 1244.28 763.951V763.951C1252.63 754.938 1250.62 740.47 1240.08 734.163V734.163C1233.67 730.33 1225.63 730.528 1219.42 734.671L1196.64 749.865Z" stroke="#E9FFD6" stroke-width="5"/>
<path d="M222.34 763.618L211.929 741.679C208.331 734.097 200.337 729.615 191.992 730.501V730.501C176.672 732.128 169.064 749.935 178.407 762.185V762.185C183.196 768.465 191.273 771.319 198.939 769.418L222.34 763.618ZM222.34 763.618L233.951 788.085C238.244 797.131 248.76 801.419 258.179 798.02V798.02C269.733 793.851 274.597 780.077 268.133 769.632V769.632C264.205 763.284 256.973 759.764 249.554 760.59L222.34 763.618Z" stroke="#E9FFD6" stroke-width="5"/>
<path d="M1155.97 225.332L1132.58 218.796C1124.5 216.538 1115.87 219.631 1111.07 226.51V226.51C1102.24 239.139 1110.69 256.563 1126.06 257.549V257.549C1133.95 258.054 1141.4 253.831 1144.99 246.799L1155.97 225.332ZM1155.97 225.332L1182.05 232.621C1191.7 235.316 1201.83 230.192 1205.44 220.854V220.854C1209.88 209.398 1202.67 196.692 1190.55 194.717V194.717C1183.18 193.517 1175.78 196.666 1171.54 202.807L1155.97 225.332Z" stroke="#E9FFD6" stroke-width="5"/>
<path d="M197.792 236.57C202.366 247.519 206.318 258.678 210.481 269.778C212.131 274.179 214.856 278.664 216.028 283.156C216.903 286.509 219.335 289.81 220.995 292.836C222.854 296.227 223.489 299.327 225.853 302.48" stroke="#CAFF9E" stroke-width="5" stroke-linecap="round" stroke-linejoin="round"/>
<path d="M1195.32 777.667C1196.4 789.484 1196.84 801.314 1197.49 813.151C1197.75 817.845 1199.01 822.939 1198.78 827.576C1198.61 831.037 1199.95 834.915 1200.62 838.298C1201.38 842.09 1201.06 845.239 1202.37 848.954" stroke="#CAFF9E" stroke-width="5" stroke-linecap="round" stroke-linejoin="round"/>
<path d="M208.386 787.701C203.923 798.695 198.871 809.401 194.009 820.215C192.082 824.501 190.858 829.604 188.527 833.619C186.787 836.615 186.189 840.672 185.237 843.989C184.169 847.706 182.436 850.354 181.895 854.257" stroke="#CAFF9E" stroke-width="5" stroke-linecap="round" stroke-linejoin="round"/>
<path d="M1164.99 251.663C1170.36 262.245 1175.13 273.081 1180.1 283.844C1182.07 288.111 1185.12 292.383 1186.62 296.776C1187.74 300.055 1190.41 303.167 1192.28 306.062C1194.39 309.307 1195.25 312.352 1197.84 315.321" stroke="#CAFF9E" stroke-width="5" stroke-linecap="round" stroke-linejoin="round"/>
<path d="M185.393 250.926C178.179 256.965 171.374 267.068 168.426 276.087C165.69 284.456 180.349 288.182 186.045 290.081" stroke="#CAFF9E" stroke-width="5" stroke-linecap="round" stroke-linejoin="round"/>
<path d="M1179.19 787.657C1170.5 791.262 1160.98 798.866 1155.47 806.589C1150.36 813.757 1163.23 821.698 1168.1 825.214" stroke="#CAFF9E" stroke-width="5" stroke-linecap="round" stroke-linejoin="round"/>
<path d="M189.472 789.162C180.098 788.371 168.152 790.751 159.708 795.078C151.871 799.094 159.656 812.062 162.363 817.422" stroke="#CAFF9E" stroke-width="5" stroke-linecap="round" stroke-linejoin="round"/>
<path d="M1153.68 266.896C1146.94 273.451 1140.9 284.029 1138.62 293.241C1136.51 301.789 1151.41 304.423 1157.23 305.896" stroke="#CAFF9E" stroke-width="5" stroke-linecap="round" stroke-linejoin="round"/>
<path d="M219.979 243.748C225.843 260.035 245.77 260.811 258.155 252.195C263.378 248.562 267.863 243.08 269.503 236.932C271.02 231.243 264.375 220.1 260.5 217" stroke="#CAFF9E" stroke-width="5" stroke-linecap="round" stroke-linejoin="round"/>
<path d="M219.083 808.422C211.777 824.114 225.379 838.698 240.239 841.302C246.506 842.401 253.55 841.668 259.044 838.457C264.127 835.486 267.257 822.895 266.689 817.965" stroke="#CAFF9E" stroke-width="5" stroke-linecap="round" stroke-linejoin="round"/>
<path d="M1187.65 257.184C1194.7 272.994 1214.63 272.296 1226.34 262.789C1231.28 258.78 1235.35 252.983 1236.53 246.73C1237.62 240.945 1230.17 230.323 1226.08 227.517" stroke="#CAFF9E" stroke-width="5" stroke-linecap="round" stroke-linejoin="round"/>
<path d="M241 181L239 173H255.5L257.5 181L261 218.5L244.5 221.5V215.5L252.5 209.5L250.5 186.5L241 181Z" fill="#3BADFF" stroke="black"/>
<path d="M278.196 778.673L282.409 771.585L294.124 783.204L289.911 790.293L265.988 819.382L252.16 809.893L256.386 805.633L266.291 807.007L281.067 789.268L278.196 778.673Z" fill="#FF8D3B" stroke="black"/>
<path d="M1203.98 193.055L1201.39 185.224L1217.85 184.006L1220.43 191.836L1226.69 228.975L1210.46 233.186L1210.01 227.202L1217.55 220.628L1213.86 197.838L1203.98 193.055Z" fill="#FFEB3B" stroke="black"/>
<path d="M255.992 219.011C256.527 221.836 259.425 221.044 261.44 220.298L262.201 217.564C262.332 217.287 262.737 217.225 262.818 216.84C262.911 216.399 263.083 215.879 262.954 215.402C262.832 214.951 261.765 214.615 261.44 214.348C260.832 213.849 260.678 213.626 260.678 212.82C260.678 212.015 260.964 209.798 259.832 210.015C258.433 210.284 258.412 212.137 257.253 212.409C255.811 212.748 254.094 212.203 252.643 212.257C252.326 212.269 252 213.38 252 213.705C252 214.488 252.541 214.945 253.184 215.331C253.67 215.621 254.247 215.987 254.766 216.197C255.378 216.444 256.183 216.547 256.72 216.956C257.207 217.328 257.05 217.665 256.754 217.921C256.382 218.243 255.864 218.335 255.992 219.011Z" fill="black" stroke="#CAFF9E" stroke-linecap="round" stroke-linejoin="round"/>
<path d="M262.072 816.219C260.463 818.601 263.078 820.08 265.033 820.969L267.499 819.564C267.787 819.459 268.119 819.701 268.447 819.485C268.824 819.237 269.312 818.988 269.556 818.559C269.787 818.153 269.266 817.163 269.223 816.744C269.143 815.962 269.191 815.696 269.759 815.123C270.326 814.552 272.09 813.179 271.134 812.536C269.951 811.742 268.63 813.042 267.616 812.419C266.354 811.644 265.519 810.048 264.45 809.065C264.217 808.851 263.203 809.409 262.974 809.64C262.422 810.197 262.484 810.902 262.67 811.628C262.81 812.177 262.962 812.843 263.183 813.357C263.443 813.964 263.942 814.604 264.035 815.273C264.12 815.88 263.771 816.008 263.38 815.981C262.89 815.948 262.457 815.649 262.072 816.219Z" fill="black" stroke="#CAFF9E" stroke-linecap="round" stroke-linejoin="round"/>
<path d="M1221.73 229.855C1222.48 232.633 1225.31 231.629 1227.26 230.736L1227.82 227.954C1227.93 227.668 1228.33 227.576 1228.38 227.186C1228.44 226.739 1228.57 226.208 1228.41 225.742C1228.26 225.301 1227.17 225.045 1226.82 224.802C1226.18 224.35 1226.01 224.139 1225.95 223.335C1225.89 222.532 1226.01 220.3 1224.9 220.6C1223.52 220.971 1223.64 222.821 1222.5 223.178C1221.09 223.622 1219.34 223.205 1217.9 223.367C1217.58 223.403 1217.34 224.534 1217.36 224.858C1217.42 225.64 1217.99 226.056 1218.66 226.392C1219.17 226.646 1219.77 226.969 1220.3 227.14C1220.93 227.341 1221.74 227.384 1222.31 227.753C1222.82 228.087 1222.69 228.434 1222.41 228.712C1222.07 229.06 1221.56 229.19 1221.73 229.855Z" fill="black" stroke="#CAFF9E" stroke-linecap="round" stroke-linejoin="round"/>
<path d="M1156.44 195.808C1158.91 198.058 1160.03 202.543 1161.39 205.555C1162.23 207.401 1162.24 208.493 1160.67 209.669C1158.9 210.993 1156.6 212.393 1154.35 212.863C1149.66 213.843 1145.09 216.683 1140.73 218.657C1134.18 221.618 1127.67 224.88 1120.93 227.373C1119.85 227.773 1117.59 229.276 1116.91 227.78C1116.56 226.992 1116.23 226.083 1116.48 225.207C1117.18 222.738 1121.78 221.584 1123.78 220.679C1128.23 218.669 1132.88 217.182 1137.27 215.05C1137.94 214.724 1137.88 212.829 1137.83 212.132C1137.57 207.967 1137.86 203.118 1139.22 199.151C1140.4 195.723 1142.58 194.629 1145.79 193.337C1148.86 192.098 1154.04 193.631 1156.44 195.808Z" fill="#FF5454"/>
<path d="M234.535 706.749C227.045 714.507 222.156 725.585 213 731.547C214.807 735.161 218.503 730.261 221.5 732.925C227.815 738.538 229.101 735.082 237.5 737.5C242.541 738.951 252.013 754.613 257.303 753.952C258.099 751.762 257.375 748.11 257.375 745.759V732.925C257.375 717.046 259.085 700.083 255.055 684.634C254.313 681.792 249.757 689.361 249.182 690.435C245.866 696.625 239.334 701.779 234.535 706.749Z" fill="#94008E"/>
<path d="M1209.74 781.117C1214.38 784.721 1219.24 788.079 1224.4 790.912C1228.83 793.342 1233.95 795.689 1235.25 801.123C1236.31 805.564 1235.49 809.968 1235.49 814.374" stroke="#CAFF9E" stroke-width="4" stroke-linecap="round" stroke-linejoin="round"/>
<path d="M1231.18 815.013C1232.07 815.013 1232.94 815.067 1233.81 815.199C1235.84 815.163 1238.44 814.618 1240.25 815.807C1240.35 815.874 1240.76 815.936 1240.78 816.058C1240.82 816.248 1240.89 816.552 1240.99 816.707C1241.22 817.094 1241.28 817.433 1241.34 817.919C1241.41 818.429 1241.8 818.822 1241.9 819.341C1242 819.815 1242.13 820.003 1242.34 820.376C1242.52 820.687 1242.39 821.235 1242.45 821.6C1242.59 822.483 1242.96 823.094 1242.96 824.046C1242.96 824.805 1243.09 825.856 1242.89 826.566C1242.75 827.071 1242.6 827.947 1242.21 828.186C1241.55 828.594 1241.67 828.463 1241.13 827.716C1240.79 827.238 1240.61 826.728 1240.32 826.21C1240.12 825.848 1240.03 824.892 1239.91 824.422C1239.73 823.709 1239.49 823.206 1239.17 822.635C1239.05 822.432 1238.3 821.504 1238.22 822.175C1238.14 822.853 1238.03 823.638 1237.43 823.67C1237.14 823.685 1236.58 823.635 1236.43 823.293C1235.95 822.278 1235.66 822.913 1235.37 823.523C1234.91 824.481 1234.36 824.456 1234.05 823.481C1233.8 822.709 1234 821.976 1233.2 821.976H1232.45C1232.12 821.976 1232.2 822.316 1231.98 822.352C1231.39 822.449 1231.46 823.35 1231.28 823.858C1230.65 825.602 1230.51 827.125 1229.35 828.479C1228.9 829.006 1228.93 829.174 1228.46 828.793C1228.25 828.621 1228.33 828.246 1228.13 828.009C1227.89 827.721 1228.06 826.285 1228.06 825.834C1228.06 824.479 1228.1 823.271 1228.2 821.965C1228.29 820.729 1228.59 819.547 1228.73 818.327C1228.82 817.515 1229.11 816.954 1229.28 816.163C1229.56 814.794 1230.32 815.013 1231.18 815.013Z" fill="black"/>
<path d="M1234.83 815.389C1233.61 815.118 1232.42 815.013 1231.18 815.013C1230.32 815.013 1229.56 814.794 1229.28 816.163C1229.11 816.954 1228.82 817.515 1228.73 818.327C1228.59 819.547 1228.29 820.729 1228.2 821.965C1228.1 823.271 1228.06 824.479 1228.06 825.834C1228.06 826.285 1227.89 827.721 1228.13 828.009C1228.33 828.246 1228.25 828.621 1228.46 828.793C1228.93 829.174 1228.9 829.006 1229.35 828.479C1230.51 827.125 1230.65 825.602 1231.28 823.858C1231.46 823.35 1231.39 822.449 1231.98 822.352C1232.2 822.316 1232.12 821.976 1232.45 821.976C1232.7 821.976 1232.95 821.976 1233.2 821.976C1234 821.976 1233.8 822.709 1234.05 823.481C1234.36 824.456 1234.91 824.481 1235.37 823.523C1235.66 822.913 1235.95 822.278 1236.43 823.293C1236.58 823.635 1237.14 823.685 1237.43 823.67C1238.03 823.638 1238.14 822.853 1238.22 822.175C1238.3 821.504 1239.05 822.432 1239.17 822.635C1239.49 823.206 1239.73 823.709 1239.91 824.422C1240.03 824.892 1240.12 825.848 1240.32 826.21C1240.61 826.728 1240.79 827.238 1241.13 827.716C1241.67 828.463 1241.55 828.594 1242.21 828.186C1242.6 827.947 1242.75 827.071 1242.89 826.566C1243.09 825.856 1242.96 824.805 1242.96 824.046C1242.96 823.094 1242.59 822.483 1242.45 821.6C1242.39 821.235 1242.52 820.687 1242.34 820.376C1242.13 820.003 1242 819.815 1241.9 819.341C1241.8 818.822 1241.41 818.429 1241.34 817.919C1241.28 817.433 1241.22 817.094 1240.99 816.707C1240.89 816.552 1240.82 816.248 1240.78 816.058C1240.76 815.936 1240.35 815.874 1240.25 815.807C1238.38 814.579 1235.67 815.201 1233.61 815.201" stroke="#CAFF9E" stroke-width="2" stroke-linecap="round" stroke-linejoin="round"/>
<path d="M1165.47 826.165C1165.15 827.769 1164.55 829.988 1165.57 831.449C1166.83 833.229 1169.56 833.363 1171.55 833.218C1174.89 832.975 1177.78 829.52 1176.8 826.154C1176.13 823.853 1174.12 822.059 1171.67 822.003C1170.81 821.984 1168.59 822.02 1168.59 823.252" stroke="#CAFF9E" stroke-width="4" stroke-linecap="round" stroke-linejoin="round"/>
<path d="M1135.75 745.763C1135.59 741.96 1135.42 738.208 1135.42 734.392C1135.42 735.419 1132.01 737.52 1131.21 738.228C1129.45 739.792 1127.05 740.832 1125.08 741.927C1124.01 742.519 1124.2 745.232 1124.2 746.387C1124.2 750.288 1124.07 754.488 1122.88 758.226C1122.51 759.372 1124.66 760.641 1125.33 761.186C1127.77 763.158 1130.34 764.933 1132.75 766.949C1133.35 767.453 1137.01 771.026 1137.17 768.39C1137.24 767.173 1137.17 765.93 1137.17 764.71C1137.17 762.055 1136.54 759.211 1136.12 756.59C1135.54 753 1135.9 749.377 1135.75 745.763Z" fill="#F19EFF" stroke="#A100BC" stroke-width="4" stroke-linecap="round" stroke-linejoin="round"/>
<path d="M1259.85 756.61C1259.85 749.637 1260.09 742.84 1258.5 736C1262.15 736 1267.16 736.898 1269.74 739.377C1273.05 742.564 1271.76 748.182 1271.76 752.423C1271.76 753.631 1272.17 755.462 1271.39 756.493C1270.19 758.096 1269.07 759.705 1267.71 761.205C1266.91 762.091 1260.5 769.576 1259.87 766.093C1259.28 762.892 1259.85 759.853 1259.85 756.61Z" fill="#F19EFF" stroke="#A100BC" stroke-width="4" stroke-linecap="round" stroke-linejoin="round"/>
<path d="M1129.5 744C1129.86 736.168 1126.71 724.38 1128.29 716.672C1129.59 710.351 1132.66 706.925 1138.96 705.553C1144.41 704.367 1150.05 704.599 1155.59 704.599C1162.19 704.599 1168.82 704.76 1175.41 704.521C1186.98 704.101 1198.49 703.898 1210.08 703.898C1222 703.898 1233.91 704.862 1245.83 705.495C1251.46 705.794 1260.56 705.322 1264.21 710.538C1266.34 713.587 1266.51 717.398 1266.51 720.995C1266.51 726.512 1265 735.983 1265 741.5" stroke="#F19EFF" stroke-width="4" stroke-linecap="round" stroke-linejoin="round"/>
<circle cx="740" cy="230" r="113" fill="black" stroke="#CAFF9E" stroke-width="6"/>
<path d="M725.287 209.126L706.736 193.455C700.326 188.04 691.194 187.264 683.962 191.521V191.521C670.685 199.337 671.121 218.696 684.693 225.987V225.987C691.651 229.724 700.185 228.983 706.379 224.083L725.287 209.126ZM725.287 209.126L745.976 226.602C753.625 233.064 764.974 232.62 772.144 225.631V225.631C780.94 217.057 779.674 202.505 769.47 195.667V195.667C763.268 191.511 755.228 191.297 748.814 195.116L725.287 209.126Z" stroke="#E9FFD6" stroke-width="5"/>
<path d="M722.54 236.823C723.022 248.68 722.849 260.517 722.893 272.372C722.911 277.072 723.907 282.225 723.444 286.844C723.099 290.292 724.232 294.233 724.736 297.647C725.301 301.472 724.818 304.6 725.939 308.378" stroke="#CAFF9E" stroke-width="5" stroke-linecap="round" stroke-linejoin="round"/>
<path d="M737.08 231.667C736.957 228.799 736.7 225.94 736.698 223.07C736.277 223.055 736.155 223.037 736.698 223.037C737.302 223.037 738.304 223.034 739.4 223.031C739.498 223.021 739.584 223.009 739.657 222.996C740.987 222.754 742.08 222.615 743.466 222.615C744.318 222.615 744.477 222.753 744.512 223.01C746.199 222.922 748.122 222.212 749.919 222.212C752.709 222.212 755.445 222.615 758.21 222.615C760.81 222.615 761.565 220.972 763.632 219.568C766.037 217.935 768.303 216.092 770.466 214.146C774.055 210.915 777.321 207.394 780.751 204.063C780.915 203.903 781.941 202.603 782.095 203.122C782.639 204.957 782.216 207.417 782.386 209.328C782.981 215.987 782.604 222.568 783.798 229.203C784.432 232.724 785.242 236.195 786.397 239.554C787.115 241.642 788.234 244.414 788.234 246.613C788.234 247.272 789.246 249.998 788.145 250.041C785.466 250.144 782.7 246.687 781.019 244.82C779.737 243.395 778.058 241.838 776.449 240.764C775.038 239.824 774.119 238.538 772.819 237.538C770.431 235.701 769.229 235.521 766.142 235.521H754.961C752.903 235.521 751.033 235.925 748.911 235.925C746.938 235.925 744.696 236.507 742.839 236.507C741.819 236.793 739.195 237.18 738.223 236.731C736.897 236.119 737.114 232.451 737.08 231.667Z" fill="#FD8A8A"/>
<path d="M736.698 223.037C736.698 225.918 736.957 228.788 737.08 231.667C737.114 232.451 736.897 236.119 738.223 236.731C739.195 237.18 741.819 236.793 742.839 236.507M736.698 223.037C735.217 223.037 738.683 223.173 739.657 222.996C740.987 222.754 742.08 222.615 743.466 222.615C745.22 222.615 744.038 223.198 744.878 224.206C745.496 224.948 745.385 226.919 745.505 227.881C745.802 230.257 745.886 232.531 745.886 234.939C745.886 236.189 743.953 236.195 742.839 236.507M736.698 223.037C738.282 223.037 742.6 223.018 744.183 223.018C745.946 223.018 748.004 222.212 749.919 222.212C752.709 222.212 755.445 222.615 758.21 222.615C760.81 222.615 761.565 220.972 763.632 219.568C766.037 217.935 768.303 216.092 770.466 214.146C774.055 210.915 777.321 207.394 780.751 204.063C780.915 203.903 781.941 202.603 782.095 203.122C782.639 204.957 782.216 207.417 782.386 209.328C782.981 215.987 782.604 222.568 783.798 229.203C784.432 232.724 785.242 236.195 786.397 239.554C787.115 241.642 788.234 244.414 788.234 246.613C788.234 247.272 789.246 249.998 788.145 250.041C785.466 250.144 782.7 246.687 781.019 244.82C779.737 243.395 778.058 241.838 776.449 240.764C775.038 239.824 774.119 238.538 772.819 237.538C770.431 235.701 769.229 235.521 766.142 235.521C762.415 235.521 758.688 235.521 754.961 235.521C752.903 235.521 751.033 235.925 748.911 235.925C746.938 235.925 744.696 236.507 742.839 236.507" stroke="#FF0000" stroke-width="4" stroke-linecap="round" stroke-linejoin="round"/>
<path d="M722.86 269.649C727.402 269.591 732.175 268.883 736.494 267.43C739.695 266.353 741.349 263.891 742.66 260.912C743.534 258.924 746.344 254.823 745.196 252.527C744.215 250.565 742.167 249.33 741.497 247.067C741.109 245.758 741.25 244.355 741.25 242.998C741.25 242.438 741.209 240.344 741.638 239.915C742.809 238.744 747.291 243.332 749.054 243.332C750.2 243.332 751.793 243.621 752.911 243.262C753.797 242.977 755.693 241.766 756.611 242.099C758.458 242.771 756.624 248.883 755.836 249.92C755.45 250.428 754.756 250.285 754.321 250.766C753.578 251.586 752.544 251.98 751.555 252.492C749.516 253.549 747.113 254.035 745.055 255.064" stroke="#CAFF9E" stroke-width="4" stroke-linecap="round" stroke-linejoin="round"/>
<path d="M722.544 254.747C727.283 259.023 734.693 259.822 740.687 261.018C747.977 262.472 755.325 263.308 762.759 263.308C765.688 263.308 769.194 263.004 772.007 263.942" stroke="#CAFF9E" stroke-width="4" stroke-linecap="round" stroke-linejoin="round"/>
<path d="M765.041 300.027C775.556 300.027 785.877 300.791 796.124 303.126C801.188 304.28 806.431 305.375 811.537 306.226" stroke="#979797" stroke-width="4" stroke-linecap="round" stroke-linejoin="round"/>
<path d="M762.716 300.414C769.632 297.599 775.114 293.074 781.702 289.78C783.821 288.721 785.485 288.002 787.858 287.606C789.368 287.355 790.54 286.409 791.948 286.078C796.861 284.922 802.642 287.212 807.662 287.714C810.912 288.039 814.422 288.757 817.65 289.35C819.753 289.736 821.772 290.727 823.935 290.727" stroke="#979797" stroke-width="4" stroke-linecap="round" stroke-linejoin="round"/>
<path d="M822.773 292.665C819.626 295.438 817.065 299.011 814.421 302.265C813.829 302.995 812.816 303.841 812.398 304.676C811.907 305.657 811.149 306.273 811.149 307.388" stroke="#979797" stroke-width="4" stroke-linecap="round" stroke-linejoin="round"/>
<path d="M772.978 264.932C774.83 264.886 776.681 264.834 778.533 264.794C779.104 264.782 779.963 264.357 780.246 264.853C780.33 264.999 780.482 265.054 780.561 265.188C780.768 265.54 780.854 265.686 780.965 266.074C780.987 266.15 781.339 266.801 781.398 266.872C781.673 267.201 781.642 267.544 781.664 267.946C781.683 268.281 782.123 268.596 781.842 268.93C781.376 269.483 780.738 269.554 780.158 269.895C779.624 270.209 778.945 270.333 778.375 270.605C777.945 270.809 777.026 270.955 776.701 271.215C776.092 271.702 774.87 271.537 774.387 272.101C773.952 272.609 772.56 272.425 772.446 271.668C772.339 270.95 771.926 270.41 771.915 269.639C771.902 268.786 771.915 267.932 771.915 267.079C771.915 266.37 771.963 265.367 772.269 264.755" stroke="#CAFF9E" stroke-width="4" stroke-linecap="round" stroke-linejoin="round"/>
<path d="M785.007 265.844C781.735 268.976 777.848 270.716 773.927 272.855C772.121 273.84 768.92 275.451 768.131 277.576C767.734 278.646 766.934 278.852 766.934 280.112C766.934 281.195 768.06 281.826 768.836 282.402C771.686 284.519 773.647 283.901 776.868 282.156C778.993 281.005 780.692 279.345 782.629 277.91C784.244 276.714 786.014 275.806 787.702 274.74C790.073 273.242 792.596 272.155 794.642 270.424C796.299 269.022 793.948 267.583 792.792 266.637C791.604 265.665 790.618 264.576 788.952 264.576C785.734 264.576 785.112 266.071 782.787 268.064" stroke="#FFC8A9" stroke-width="4" stroke-linecap="round" stroke-linejoin="round"/>
<path d="M782.09 277.554C786.058 283.085 789.735 289.536 794.295 294.602C794.703 295.055 795.147 295.429 795.651 295.764" stroke="#FFC8A9" stroke-width="4" stroke-linecap="round" stroke-linejoin="round"/>
<path d="M633.883 131.868C620.062 135.126 610.991 141.935 602.889 153.622C587.354 176.031 577.496 201.625 575.591 228.893C573.427 259.873 578.839 291.813 590.607 320.527C595.006 331.261 601.255 340.042 607.548 349.48" stroke="#969696" stroke-width="4" stroke-linecap="round" stroke-linejoin="round"/>
<path d="M863.97 126.324C874.332 129.394 881.058 137.839 887.456 146.191C901.454 164.464 913.78 185.3 919.412 207.794C925.897 233.689 923.971 262.287 921.414 288.571C919.689 306.314 917.026 323.669 911.096 340.471" stroke="#969696" stroke-width="4" stroke-linecap="round" stroke-linejoin="round"/>
<path d="M554.878 124.938C540.704 138.552 532.845 157.214 527.349 175.799C515.226 216.791 514.914 259.974 531.507 299.659C540.654 321.534 553.185 341.885 565.196 362.263C568.162 367.294 573.522 373.466 574.976 379.281" stroke="#969696" stroke-width="4" stroke-linecap="round" stroke-linejoin="round"/>
<path d="M931.887 133.254C947.265 152 963.217 170.674 975.086 191.931C992.979 223.977 1000.57 257.902 1000.96 294.384C1001.21 317.992 1000.17 341.95 994.722 364.997C993.954 368.244 993.246 377.878 990.101 379.974" stroke="#969696" stroke-width="4" stroke-linecap="round" stroke-linejoin="round"/>
<path d="M499 1018.43C517.059 919.899 554.472 818.907 592.831 726.169C632.565 630.107 661.477 531.815 695.625 433.91C701.884 415.965 710.467 398.581 715.792 380.424C717.752 373.739 738.475 448.086 741.28 458.469C767.988 557.347 812.958 649.927 849.116 745.544C867.931 795.3 884.957 848 908.495 895.63C917.014 912.867 935.269 941.509 937.905 959.485C939.629 971.244 950.814 993.834 958.912 1002.6C966.756 1011.09 983 1039 983 1013.52" stroke="#CAFF9E" stroke-width="9" stroke-linecap="round" stroke-linejoin="round"/>
</g>
<defs>
<clipPath id="clip0">
<rect width="1440" height="1024" fill="white"/>
</clipPath>
</defs>
</svg>
