<svg width="1440" height="1024" viewBox="0 0 1440 1024" fill="none" xmlns="http://www.w3.org/2000/svg">
<rect width="1440" height="1024" fill="black"/>
<rect width="1440" height="1024" fill="black"/>
<path d="M619.493 601.54C662.151 577.463 703.747 551.533 744.906 524.996C742.775 519.669 738.67 502.319 731.541 501.912C717.816 501.127 700.614 497.946 687.532 503.397C673.788 509.123 660.08 516.107 645.278 518.651C618.919 523.182 592.576 527.335 566.574 533.771C543.821 539.403 517.984 537.928 494.621 538.361C480.548 538.622 464.011 539.085 451.556 546.326C442.961 551.323 437.496 558.631 431.442 566.305C425.299 574.093 421.131 583.839 413.15 589.93C403.055 597.634 391.001 597.513 379.198 594.25C375.125 593.124 362.417 585.305 364.078 593.372C366.333 604.326 364.038 614.157 359.758 624.354C356.332 632.517 358.896 633.209 364.685 639.339C388.869 664.945 418.047 684.881 437.449 715.005C441.533 721.346 447.53 731.557 454.256 735.592C457.64 737.623 463.486 733.584 466.609 732.217C479.48 726.586 488.968 715.068 502.315 710.348C522.916 703.062 554.664 699.91 556.584 673.021C557.383 661.836 556.49 642.854 563.604 633.534C566.773 629.383 570.48 627.204 575.079 624.759C613.261 604.464 561.17 634.459 619.493 601.54Z" fill="#FF002E"/>
<path d="M236.692 124V161M236.692 198V161M236.692 161H194M236.692 161H279" stroke="#CAFF9E" stroke-width="22" stroke-linecap="round" stroke-linejoin="round"/>
<path d="M1237.69 438V475M1237.69 512V475M1237.69 475H1195M1237.69 475H1280" stroke="#CAFF9E" stroke-width="22" stroke-linecap="round" stroke-linejoin="round"/>
<path d="M287.692 870V907M287.692 944V907M287.692 907H245M287.692 907H330" stroke="#CAFF9E" stroke-width="22" stroke-linecap="round" stroke-linejoin="round"/>
<path d="M726.692 161V198M726.692 235V198M726.692 198H684M726.692 198H769" stroke="#CAFF9E" stroke-width="22" stroke-linecap="round" stroke-linejoin="round"/>
<path d="M1194.69 833V870M1194.69 907V870M1194.69 870H1152M1194.69 870H1237" stroke="#CAFF9E" stroke-width="22" stroke-linecap="round" stroke-linejoin="round"/>
<path d="M151.692 577V614M151.692 651V614M151.692 614H109M151.692 614H194" stroke="#CAFF9E" stroke-width="22" stroke-linecap="round" stroke-linejoin="round"/>
<path d="M1336.69 87V124M1336.69 161V124M1336.69 124H1294M1336.69 124H1379" stroke="#CAFF9E" stroke-width="22" stroke-linecap="round" stroke-linejoin="round"/>
<path d="M940.692 819V856M940.692 893V856M940.692 856H898M940.692 856H983" stroke="#CAFF9E" stroke-width="22" stroke-linecap="round" stroke-linejoin="round"/>
<path d="M727.918 441.282L686.361 409.376C672 398.35 652.241 397.599 637.084 407.502V407.502C609.258 425.681 612.146 467.36 642.129 481.706V481.706C657.5 489.06 675.818 486.604 688.674 475.421L727.918 441.282ZM727.918 441.282L774.265 476.864C791.401 490.02 815.813 487.921 830.563 472.136V472.136C848.657 452.773 844.463 421.539 821.783 407.829V407.829C808 399.497 790.651 399.844 777.211 408.721L727.918 441.282Z" stroke="#E9FFD6" stroke-width="17"/>
<path d="M697.697 618.183L636.697 545.68L697.697 511.183" stroke="#CAFF9E" stroke-width="19"/>
<path d="M752.697 618.183L813.697 545.68L752.697 511.183" stroke="#CAFF9E" stroke-width="19"/>
<path d="M722.697 512.183V656.683M722.697 656.683L665.697 701.683L640.197 772.683M722.697 656.683L775.197 701.683L798.697 772.683" stroke="#CAFF9E" stroke-width="20" stroke-linecap="round" stroke-linejoin="round"/>
<path d="M409.71 377.872C429.814 372.599 457.321 360.441 478.8 365.68C500.959 371.085 518.028 391.18 534.644 405.268C550.829 418.99 550.357 411.182 552.707 394.731C553.36 390.157 555.905 360.084 552.707 378.475C551.483 385.511 548.754 421.216 540.063 423.33C530.559 425.642 503.607 409.54 499.121 418.514" stroke="#9ED6FF" stroke-width="5" stroke-linecap="round" stroke-linejoin="round"/>
<path d="M274.239 331.812C277.352 336.171 289.033 363.615 296.065 359.659C304.399 354.972 310.917 344.42 314.88 336.027C318.565 328.225 318.303 312.546 317.439 332.415C316.516 353.647 309.158 373.667 304.043 394.129" stroke="#9ED6FF" stroke-width="5" stroke-linecap="round" stroke-linejoin="round"/>
<path d="M336.556 318.265C331.602 323.838 318.997 341.047 327.223 349.273C332.599 354.649 345.783 349.439 350.103 345.36C358.74 337.202 364.462 318.265 347.393 318.265" stroke="#9ED6FF" stroke-width="5" stroke-linecap="round" stroke-linejoin="round"/>
<path d="M366.359 307.428C366.359 315.404 364.59 341.698 381.261 330.157C385.189 327.438 393.155 317.917 393.454 312.847C394.012 303.361 402.014 322.663 404.442 324.888C411.129 331.019 420.261 329.103 428.676 329.103" stroke="#9ED6FF" stroke-width="5" stroke-linecap="round" stroke-linejoin="round"/>
</svg>
