<svg width="376" height="617" viewBox="0 0 376 617" fill="none" xmlns="http://www.w3.org/2000/svg">
<rect width="376" height="616.798" transform="matrix(-1 0 0 1 376 0)" fill="black"/>
<path d="M140.29 216.936L184.688 200.711C201.335 194.627 220.235 200.608 231.23 215.439V215.439C250.257 241.105 236.032 277.532 205.526 281.516V281.516C188.917 283.686 172.351 275.054 163.933 259.796L140.29 216.936ZM140.29 216.936L90.9209 234.979C71.1715 242.196 48.849 231.909 40.2071 211.729V211.729C30.2451 188.466 42.5918 162.066 66.2015 156.456V156.456C81.5434 152.811 97.8072 159.034 107.514 172.264L140.29 216.936Z" stroke="#E9FFD6" stroke-width="17"/>
<path d="M90.0072 302.671C92.0427 316.535 101.513 332.719 102.427 346.73C102.85 353.209 102.039 358.475 97.7557 363.357C88.9611 373.381 77.8617 381.649 67.5542 389.798C57.1232 398.044 46.2174 405.56 35.2587 412.982C32.5096 414.844 28.3037 417.696 25.0305 417.696" stroke="#CAFF9E" stroke-width="15" stroke-linecap="round" stroke-linejoin="round"/>
<path d="M94.2093 294.195C97.8003 296.26 99.0377 300.845 96.9732 304.436C94.9087 308.027 90.324 309.264 86.733 307.199L94.2093 294.195ZM34.4909 276.022L31.1779 282.751L34.4909 276.022ZM22.7751 278.098L15.2751 278.098L15.2751 263.098L22.7751 263.098L22.7751 278.098ZM86.733 307.199C78.2877 302.344 69.3333 298.608 59.9075 294.871C50.6181 291.188 40.7275 287.452 31.1779 282.751L37.8038 269.293C46.6671 273.657 55.8145 277.112 65.4361 280.927C74.9211 284.688 84.7505 288.757 94.2093 294.195L86.733 307.199ZM31.1779 282.751C28.5502 281.457 25.6334 279.661 24.3563 278.955C22.4846 277.922 22.2973 278.098 22.7751 278.098L22.7751 263.098C26.4987 263.098 29.6782 264.759 31.6074 265.824C34.1312 267.218 35.4495 268.134 37.8038 269.293L31.1779 282.751Z" fill="#CAFF9E"/>
<path d="M116.145 269.117C113.099 274.052 129.009 248.932 125.876 253.739C121.923 259.803 118.086 265.941 114.294 272.127C106.496 284.844 97.2824 296.603 86.7592 306.727C84.2103 309.179 81.8065 311.786 79.7559 314.743C78.0501 317.203 75.7021 318.772 73.5307 320.682C70.9781 322.926 68.6579 324.953 65.6594 326.506C62.5167 328.133 59.1971 329.05 56.1869 330.955C54.6529 331.926 52.9278 332.732 51.3085 333.524C47.1586 335.553 43.3012 338.496 39.2023 340.706C37.6189 341.559 35.9356 342.131 34.3538 342.996C32.8263 343.831 31.0771 344.932 29.4156 345.368C27.023 345.996 23.1637 348.068 22.2326 348.068" stroke="#CAFF9E" stroke-width="15" stroke-linecap="square" stroke-linejoin="round"/>
<path d="M0 235.794C0 231.535 4.98477 229.226 8.23343 231.981L21.2334 243.002C22.354 243.952 23 245.347 23 246.816V479.578C23 480.815 22.5414 482.008 21.7128 482.927L8.71285 497.34C5.64547 500.741 0 498.571 0 493.991V235.794Z" fill="#FF8A70"/>
<path d="M0 309.616C0 306.353 4.47233 305.435 5.75743 308.434L11.7574 322.434C11.9175 322.807 12 323.209 12 323.616V382.598C12 382.865 11.9645 383.13 11.8943 383.388L5.89429 405.388C4.97337 408.764 0 408.098 0 404.598V309.616Z" fill="#FFCFC4"/>
<path d="M209.79 199.849C214.928 200.866 219.988 201.085 225.233 201.11C225.66 201.11 226.356 200.826 226.746 201.012C227.417 201.331 227.534 201.488 228.315 201.488C228.783 201.488 228.637 201.084 228.637 200.704C228.637 199.396 228.656 198.113 228.448 196.817C228.137 194.881 228.277 192.908 228.259 190.955C228.24 188.939 227.837 186.861 227.565 184.868C227.286 182.821 226.932 180.793 226.396 178.796C225.936 177.084 225.293 175.205 223.846 174.076C222.701 173.18 221.176 173.527 219.938 174.146C218.188 175.021 216.796 176.585 215.428 177.942C213.481 179.872 211.545 181.855 209.727 183.909C208.101 185.746 206.254 187.368 204.558 189.134C203.326 190.417 202.163 191.968 202.163 193.805C202.163 195.1 202.019 197.058 203.017 198.056C203.406 198.445 204.137 198.568 204.642 198.715C206.323 199.204 208.073 199.51 209.79 199.849Z" fill="#3BADFF" stroke="#3BADFF" stroke-width="6" stroke-linecap="round" stroke-linejoin="round"/>
<path d="M248.925 202.002C243.745 201.232 238.68 201.254 233.439 201.48C233.013 201.5 232.331 201.817 231.933 201.65C231.248 201.363 231.123 201.212 230.343 201.249C229.875 201.272 230.041 201.669 230.059 202.048C230.121 203.354 230.163 204.637 230.433 205.922C230.836 207.84 230.791 209.818 230.902 211.768C231.017 213.781 231.519 215.837 231.886 217.814C232.262 219.847 232.713 221.855 233.344 223.824C233.885 225.512 234.617 227.358 236.116 228.417C237.303 229.257 238.809 228.838 240.016 228.161C241.723 227.203 243.038 225.574 244.34 224.154C246.193 222.132 248.032 220.059 249.749 217.921C251.286 216.008 253.053 214.299 254.663 212.455C255.833 211.115 256.92 209.509 256.832 207.675C256.77 206.381 256.82 204.418 255.776 203.469C255.368 203.099 254.632 203.012 254.121 202.889C252.419 202.48 250.656 202.259 248.925 202.002Z" fill="#3BADFF" stroke="#3BADFF" stroke-width="6" stroke-linecap="round" stroke-linejoin="round"/>
</svg>
