<svg width="1440" height="1024" viewBox="0 0 1440 1024" fill="none" xmlns="http://www.w3.org/2000/svg">
<g clip-path="url(#clip0)">
<rect width="1440" height="1024" fill="black"/>
<rect width="1440" height="1024" fill="black"/>
<path d="M163.815 361.321C138.299 368.005 138.226 366.04 120.849 358.119C118.46 357.03 115.859 356.456 113.24 356.642C95.7999 357.878 72.2011 366.184 55.8817 360.355C42.4793 355.569 29.3523 338.965 32.7013 323.895C34.864 314.163 70.12 301.924 66.0231 294.316C51.8995 268.086 56.7867 228.262 82.9254 210.166C99.4633 198.717 125.159 200.025 144.136 200.025C159.874 200.025 180.321 203.51 193.756 193.505C211.716 180.131 204.079 162.259 212.953 143.402C229.27 108.727 270.563 109.432 303.984 114.306C320.658 116.738 336.057 124.356 348.413 135.796C357.447 144.161 368.154 148.156 380.648 144.73C393.284 141.265 399.97 137.003 413.728 137.003C432.379 137.003 453.011 134.913 471.075 140.504C500.641 149.656 510.596 172.909 499.206 200.508C493.376 214.634 486.65 222.155 486.65 237.451C486.65 280.86 467.978 316.59 425.318 332.587C390.915 345.489 344.687 346.405 311.107 330.414C301.719 325.944 285.817 308.521 274.767 310.976C263.824 313.408 248.079 324.518 240.117 328.482L239.012 329.033C218.437 339.28 185.685 355.593 163.815 361.321Z" fill="#7B9AB0" stroke="black" stroke-width="37" stroke-linecap="round" stroke-linejoin="round"/>
<path d="M466.643 361.444C441.127 368.128 441.054 366.163 423.677 358.242C421.288 357.153 418.687 356.58 416.068 356.765C398.628 358.001 375.029 366.307 358.709 360.478C345.307 355.692 332.18 339.088 335.529 324.018C337.692 314.286 372.948 302.047 368.851 294.439C354.727 268.209 359.614 228.385 385.753 210.289C402.291 198.84 427.987 200.148 446.964 200.148C462.702 200.148 483.149 203.633 496.584 193.628C514.544 180.254 506.906 162.382 515.78 143.525C532.098 108.85 573.391 109.555 606.811 114.429C623.486 116.861 638.885 124.479 651.24 135.919C660.275 144.284 670.982 148.279 683.475 144.853C696.111 141.388 702.798 137.126 716.556 137.126C735.206 137.126 755.838 135.036 773.903 140.627C803.468 149.779 813.423 173.032 802.033 200.631C796.203 214.757 789.477 222.278 789.477 237.574C789.477 280.983 770.806 316.713 728.146 332.71C693.742 345.612 647.515 346.528 613.934 330.537C604.546 326.067 588.644 308.644 577.594 311.1C566.651 313.531 550.907 324.641 542.945 328.605L541.839 329.156C521.265 339.403 488.512 355.716 466.643 361.444Z" fill="#7B9AB0" stroke="black" stroke-width="37" stroke-linecap="round" stroke-linejoin="round"/>
<path d="M702.643 361.444C677.127 368.128 677.054 366.163 659.677 358.242C657.288 357.153 654.687 356.58 652.068 356.765C634.628 358.001 611.029 366.307 594.709 360.478C581.307 355.692 568.18 339.088 571.529 324.018C573.692 314.286 608.948 302.047 604.851 294.439C590.727 268.209 595.614 228.385 621.753 210.289C638.291 198.84 663.987 200.148 682.964 200.148C698.702 200.148 719.149 203.633 732.584 193.628C750.544 180.254 742.906 162.382 751.78 143.525C768.098 108.85 809.391 109.555 842.811 114.429C859.486 116.861 874.885 124.479 887.24 135.919C896.275 144.284 906.982 148.279 919.475 144.853C932.111 141.388 938.798 137.126 952.556 137.126C971.206 137.126 991.838 135.036 1009.9 140.627C1039.47 149.779 1049.42 173.032 1038.03 200.631C1032.2 214.757 1025.48 222.278 1025.48 237.574C1025.48 280.983 1006.81 316.713 964.146 332.71C929.742 345.612 883.515 346.528 849.934 330.537C840.546 326.067 824.644 308.644 813.594 311.1C802.651 313.531 786.907 324.641 778.945 328.605L777.839 329.156C757.265 339.403 724.512 355.716 702.643 361.444Z" fill="#7B9AB0" stroke="black" stroke-width="37" stroke-linecap="round" stroke-linejoin="round"/>
<path d="M786.907 925.293C788.114 925.414 789.236 925.63 790.281 925.93C790.289 915.977 790.358 907.228 786.178 898.03C783.301 891.702 778.721 889.023 773.868 884.17C771.232 881.534 761.827 875.076 758.185 874.414C746.095 872.215 737.397 870.093 726.271 863.198C717.605 857.828 713.141 850.299 713.141 862.833C713.141 874.854 712.824 886.927 713.141 898.942C713.363 907.413 717.412 920.412 725.724 924.29C732.066 927.25 750.229 929.581 756.635 926.023C763.208 922.371 779.471 924.55 786.907 925.293Z" fill="black"/>
<path d="M921.583 1023.68C907.644 1012.82 892.047 996.577 875.263 989.942C864.47 985.675 854.135 986.445 842.802 985.93C835.027 985.576 823.326 975.572 818.183 970.429C810.931 963.177 812.504 953.942 807.514 945.627C802.414 937.126 798.909 926.494 786.907 925.293C779.471 924.55 763.208 922.371 756.635 926.023C750.229 929.581 732.066 927.25 725.724 924.29C717.412 920.412 713.363 907.413 713.141 898.942C712.824 886.927 713.141 874.854 713.141 862.833C713.141 850.299 717.605 857.828 726.271 863.198C737.397 870.093 746.095 872.215 758.185 874.414C761.827 875.076 771.232 881.534 773.868 884.17C778.721 889.023 783.301 891.702 786.178 898.03C790.486 907.508 790.281 916.509 790.281 926.843" stroke="#CAFF9E" stroke-width="8" stroke-linecap="round" stroke-linejoin="round"/>
<path d="M440 875.5C431.897 868.941 427.95 865.737 421.364 857.687C418.867 854.636 421.915 848.789 419.277 845.161C417.067 842.122 418.761 820.804 419.045 820.804C426.667 820.804 437.056 828.666 444.677 831.011C447.61 831.913 450.319 833.859 452.216 836.23C455.933 840.876 462.655 845.243 462.655 851.888" stroke="#E09EFF" stroke-width="8" stroke-linecap="round" stroke-linejoin="round"/>
<path d="M1046.29 589.495C1044.48 599.757 1039.26 610.665 1040.01 621.171C1040.29 625.002 1042.04 630.314 1046.29 631.495C1053.45 633.486 1059.54 628.214 1063.18 622.755C1065.93 618.636 1069.52 604.371 1069.52 609.322C1069.52 614.839 1067.69 623.883 1070.57 628.797C1074.51 635.504 1080.22 628.424 1082.6 623.752C1087.78 613.579 1086.41 602.203 1086.41 591.137C1086.41 585.332 1087.52 579.541 1084.3 574.712" stroke="#F1FF9E" stroke-width="4" stroke-linecap="round" stroke-linejoin="round"/>
<path d="M1096.97 608.501C1096.97 616.006 1096.74 623.241 1095.92 630.674" stroke="#F1FF9E" stroke-width="4" stroke-linecap="round" stroke-linejoin="round"/>
<path d="M1094.86 597.942C1090.02 604.682 1098.03 604.473 1098.03 597.942" stroke="#F1FF9E" stroke-width="4" stroke-linecap="round" stroke-linejoin="round"/>
<path d="M1114.92 586.327C1114.92 597.924 1114.74 609.189 1113.04 620.702C1112.17 626.633 1111.29 644.5 1110.7 638.535C1110.01 631.61 1111.16 611.926 1121.2 610.671C1127.2 609.921 1125.19 621.369 1120.2 622.755C1114.37 624.374 1126.23 631.744 1128 633.255C1131.07 635.873 1137.09 641.233 1137.09 641.233" stroke="#F1FF9E" stroke-width="4" stroke-linecap="round" stroke-linejoin="round"/>
<path d="M1147.65 614.836C1147.42 623.369 1145.54 631.645 1145.54 640.177" stroke="#F1FF9E" stroke-width="4" stroke-linecap="round" stroke-linejoin="round"/>
<path d="M1149.77 605.333C1145.07 604.189 1137.6 597.942 1146.6 597.942C1152.24 597.942 1153.99 600.949 1153.99 606.389" stroke="#F1FF9E" stroke-width="4" stroke-linecap="round" stroke-linejoin="round"/>
<path d="M1166.66 571.545C1166.42 594.354 1163.66 616.895 1160.32 639.414C1159.54 644.694 1163.89 636.497 1165.08 634.956C1167.65 631.597 1170.25 627.257 1173.41 624.456C1176.24 621.938 1174.89 637.325 1175.34 639.942C1176.75 648.042 1181.63 646.327 1186.72 641.233" stroke="#F1FF9E" stroke-width="4" stroke-linecap="round" stroke-linejoin="round"/>
<path d="M1199.39 625.395C1194.4 628.683 1189.92 633.916 1192.24 640.412C1194.3 646.192 1203.4 645.452 1206.2 641.174C1215.48 626.973 1196.94 628.562 1188.83 628.562" stroke="#F1FF9E" stroke-width="4" stroke-linecap="round" stroke-linejoin="round"/>
<path d="M1221.57 627.506C1220.24 631.087 1211.38 653.527 1222.62 642.289C1223.68 641.226 1226.04 636.357 1227.31 638.3C1228.66 640.365 1228.8 645.831 1231.6 646.454C1247.93 650.083 1253.06 619.059 1234.24 619.059" stroke="#F1FF9E" stroke-width="4" stroke-linecap="round" stroke-linejoin="round"/>
<path d="M1083.25 664.462C1061.49 659.628 1030.52 692.555 1048.99 712.564C1058.5 722.864 1076.79 707.816 1085.36 703.53" stroke="#F1FF9E" stroke-width="4" stroke-linecap="round" stroke-linejoin="round"/>
<path d="M1094.86 699.306C1096.63 698.008 1103.48 691.885 1105.42 695.552C1107.41 699.306 1109.12 705.483 1105.42 708.809C1099.14 714.463 1091.69 706.344 1091.69 700.362" stroke="#F1FF9E" stroke-width="4" stroke-linecap="round" stroke-linejoin="round"/>
<path d="M1122.31 694.027C1120.4 699.156 1117.63 702.83 1114.45 707.167C1111.2 711.598 1116.68 703.078 1117.56 702.122C1118.73 700.856 1122.64 696.844 1123.96 700.01C1124.61 701.584 1123.43 706.425 1124.66 707.519C1126.49 709.146 1133.2 694.758 1134.46 695.259C1139.38 697.228 1137.1 716.437 1137.1 720.424" stroke="#F1FF9E" stroke-width="4" stroke-linecap="round" stroke-linejoin="round"/>
<path d="M1147.65 705.642C1147.65 707.929 1149.17 718.44 1147.13 720.072C1146.68 720.425 1147.99 711.952 1148.48 710.921C1152.05 703.341 1151.55 706.915 1154.81 712.212C1157.24 716.158 1163.2 704.232 1163.49 704.703C1166.63 709.798 1165.19 718.76 1166.66 724.647" stroke="#F1FF9E" stroke-width="4" stroke-linecap="round" stroke-linejoin="round"/>
<path d="M1170.88 705.642C1170.88 709.562 1169.25 717.613 1172.47 720.835C1175.52 723.89 1179.19 714.394 1179.8 712.563C1182.76 703.676 1180.66 719.507 1184.61 721.48" stroke="#F1FF9E" stroke-width="4" stroke-linecap="round" stroke-linejoin="round"/>
<path d="M1194.11 708.809C1194.43 711.189 1195.4 722.649 1195.81 721.597C1196.98 718.624 1198.47 716.631 1200.21 714.089C1201.76 711.841 1206.47 723.28 1207.84 724.648" stroke="#F1FF9E" stroke-width="4" stroke-linecap="round" stroke-linejoin="round"/>
<path d="M1215.23 710.921C1215.23 715.497 1215.23 720.072 1215.23 724.647" stroke="#F1FF9E" stroke-width="4" stroke-linecap="round" stroke-linejoin="round"/>
<path d="M1208.89 698.25C1208.89 711.789 1212.67 700.25 1208.89 699.306" stroke="#F1FF9E" stroke-width="4" stroke-linecap="round" stroke-linejoin="round"/>
<path d="M1233.18 675.021C1233.18 688.114 1231.07 700.915 1231.07 714.03C1231.07 716.397 1229.82 720.486 1233.06 720.424C1238.33 720.323 1242.66 717.977 1246.91 715.144" stroke="#F1FF9E" stroke-width="4" stroke-linecap="round" stroke-linejoin="round"/>
<path d="M1226.84 706.697C1231.77 704.729 1236.77 704.093 1241.63 702.474" stroke="#F1FF9E" stroke-width="4" stroke-linecap="round" stroke-linejoin="round"/>
<path d="M1251.13 701.418C1251.81 706.499 1251.2 711.137 1251.13 716.2C1251.06 721.191 1251.23 721.378 1254.77 717.843C1258.26 714.35 1262.64 703.051 1260.16 715.145C1258.32 724.159 1253.95 744.497 1244.27 748.287C1239.55 750.134 1235.97 747.687 1232.12 745.765" stroke="#F1FF9E" stroke-width="4" stroke-linecap="round" stroke-linejoin="round"/>
<path d="M328.238 476.157C319.915 467.078 323.166 451.956 323.166 440.577C333.052 445.52 346.541 458.1 344.483 470.452C342.974 479.501 335.399 483.969 328.238 476.157Z" fill="#3BADFF" stroke="#CAE9FF" stroke-width="4" stroke-linecap="round" stroke-linejoin="round"/>
<path d="M447.697 527.58C439.374 518.5 442.625 503.379 442.625 492C452.511 496.943 466 509.523 463.942 521.874C462.433 530.924 454.858 535.392 447.697 527.58Z" fill="#3BADFF" stroke="#CAE9FF" stroke-width="4" stroke-linecap="round" stroke-linejoin="round"/>
<path d="M364.697 641.58C356.374 632.5 359.625 617.379 359.625 606C369.511 610.943 383 623.523 380.942 635.874C379.433 644.924 371.858 649.392 364.697 641.58Z" fill="#3BADFF" stroke="#CAE9FF" stroke-width="4" stroke-linecap="round" stroke-linejoin="round"/>
<path d="M565.697 681.58C557.374 672.5 560.625 657.379 560.625 646C570.511 650.943 584 663.523 581.942 675.874C580.433 684.924 572.858 689.392 565.697 681.58Z" fill="#3BADFF" stroke="#CAE9FF" stroke-width="4" stroke-linecap="round" stroke-linejoin="round"/>
<path d="M674.697 579.58C666.374 570.5 669.625 555.379 669.625 544C679.511 548.943 693 561.523 690.942 573.874C689.433 582.924 681.858 587.392 674.697 579.58Z" fill="#3BADFF" stroke="#CAE9FF" stroke-width="4" stroke-linecap="round" stroke-linejoin="round"/>
<path d="M386.697 749.58C378.374 740.5 381.625 725.379 381.625 714C391.511 718.943 405 731.523 402.942 743.874C401.433 752.924 393.858 757.392 386.697 749.58Z" fill="#3BADFF" stroke="#CAE9FF" stroke-width="4" stroke-linecap="round" stroke-linejoin="round"/>
<path d="M273.697 756.58C265.374 747.5 268.625 732.379 268.625 721C278.511 725.943 292 738.523 289.942 750.874C288.433 759.924 280.858 764.392 273.697 756.58Z" fill="#3BADFF" stroke="#CAE9FF" stroke-width="4" stroke-linecap="round" stroke-linejoin="round"/>
<path d="M587.697 456.58C579.374 447.5 582.625 432.379 582.625 421C592.511 425.943 606 438.523 603.942 450.874C602.433 459.924 594.858 464.392 587.697 456.58Z" fill="#3BADFF" stroke="#CAE9FF" stroke-width="4" stroke-linecap="round" stroke-linejoin="round"/>
<path d="M498.697 619.58C490.374 610.5 493.625 595.379 493.625 584C503.511 588.943 517 601.523 514.942 613.874C513.433 622.924 505.858 627.392 498.697 619.58Z" fill="#3BADFF" stroke="#CAE9FF" stroke-width="4" stroke-linecap="round" stroke-linejoin="round"/>
<path d="M725.697 721.58C717.374 712.5 720.625 697.379 720.625 686C730.511 690.943 744 703.523 741.942 715.874C740.433 724.924 732.858 729.392 725.697 721.58Z" fill="#3BADFF" stroke="#CAE9FF" stroke-width="4" stroke-linecap="round" stroke-linejoin="round"/>
<path d="M866.068 359.597C866.068 366.968 863.233 384.603 871.403 389.038C879.227 393.285 883.495 379.565 884.642 374.812C887.875 361.417 876.879 394.242 875.849 397.14C870.438 412.372 866.723 428.205 860.733 443.179" stroke="white" stroke-width="3" stroke-linecap="round" stroke-linejoin="round"/>
<path d="M898.079 373.824C890.654 381.791 882.045 391.927 888.792 402.672C891.754 407.39 900.386 411.625 905.982 408.6C920.699 400.645 919.717 370.367 903.414 364.932" stroke="white" stroke-width="3" stroke-linecap="round" stroke-linejoin="round"/>
<path d="M930.089 364.932C928.807 374.701 924.785 393.395 929.298 403.067C934.932 415.14 947.013 392.849 948.662 388.05C953.475 374.048 952.85 391.818 958.147 396.547C965.685 403.277 973.641 395.352 979.882 391.607" stroke="white" stroke-width="3" stroke-linecap="round" stroke-linejoin="round"/>
<path d="M923.466 1019.21C935.877 1000.23 946.671 969.795 934.628 948.119C929.986 939.762 911.895 938.396 904.062 934.124C894.356 928.829 890.768 924.506 891.012 913.775C891.254 903.116 894.501 892.911 897.966 883.209C900.353 876.526 900.437 877.292 908.012 880.977C912.798 883.305 916.908 886.828 921.921 888.618C930.438 891.66 936.988 893.559 937.376 903.643C937.963 918.905 935.739 931.391 931.194 945.028" stroke="#CAFF9E" stroke-width="8" stroke-linecap="round" stroke-linejoin="round"/>
<path d="M925 1018.75C935.149 1012.93 940.276 1012.1 950.325 1006.2C957.109 1002.22 962.912 996.79 969.644 992.892C978.276 987.895 982.556 976.523 987.417 968.422C996.511 953.266 1002.76 937.787 1010.17 922.144C1012.24 917.767 1013.6 913.26 1013.6 908.235C1013.6 906.098 1016.69 894.369 1015.75 893.639C1013.01 891.504 1008.34 891.217 1005.28 888.83C1002.44 886.628 1001.24 879.347 1001.24 876.123C1001.24 865.536 1002.58 857.195 1004.42 847.103C1005.21 842.714 1012.13 837.475 1015.06 834.052C1021.45 826.604 1020.38 824.562 1024.42 836.456C1026.8 843.446 1034.85 851.689 1035.24 858.78C1035.57 864.761 1036.22 872.143 1035.15 878.012C1034.82 879.845 1028.51 888.904 1026.74 889.689C1023.47 891.144 1019.05 893.511 1016.69 895.871" stroke="#CAFF9E" stroke-width="8" stroke-linecap="round" stroke-linejoin="round"/>
<path d="M919.5 1020C959.488 1022.29 969.281 1018.54 993.5 1014.5C1015.01 1010.92 1036.71 1008.57 1057.92 1003.41C1095.72 994.228 1126.54 977.704 1154.6 951.295C1175.3 931.815 1188.12 903.396 1195.13 876.168C1196.3 871.585 1197.58 853.722 1194.27 850.411C1187.25 843.395 1176.74 844.393 1169.97 837.618C1164.37 832.019 1154.22 823.766 1153.74 815.208C1153.54 811.644 1154.61 791.383 1154.69 791.425C1163.86 796.523 1175.61 799.898 1180.01 809.799C1182.52 815.435 1184.22 807.476 1184.74 805.163C1185.55 801.5 1188.43 796.279 1190.83 793.572C1192.97 791.169 1195.14 784.833 1198.9 786.188C1201.58 787.152 1204.47 794.018 1205.94 796.663C1208.4 801.09 1207.64 805.336 1207.83 810.228C1208.08 816.435 1215.99 805.879 1217.11 805.163C1222.56 801.657 1232.56 787.711 1232.56 803.617C1232.56 812.139 1236.38 820.568 1229.47 826.713C1223.54 831.985 1218.05 834.31 1211.7 839.249C1205.92 843.739 1197.9 844.788 1193.92 850.754" stroke="#FF8C67" stroke-width="8" stroke-linecap="round" stroke-linejoin="round"/>
<path d="M918.5 1020.5C893.637 995.637 863.299 1004.29 830.213 1004.29C815.599 1004.29 804.487 1009.79 790.43 1012.18C782.007 1013.61 772.744 1012.64 764.217 1012.64C752.83 1012.64 744.278 1006.63 733.945 1002.32C719.852 996.449 704.789 994.312 692.306 985.039C678.93 975.102 672.235 958.388 658.902 948.388C641.889 935.627 615.907 933.737 595.574 938.645C587.327 940.636 574.428 943.51 569.13 934.238C564.656 926.408 544.788 915.59 536.77 911.272C529.462 907.338 529.013 904.081 520.184 904.081C510.677 904.081 500.095 902.69 490.84 905.125C479.235 908.179 474.355 913.122 460.567 912.432C453.96 912.102 439.966 899.016 437.138 893.643C433.627 886.971 420.353 872.044 436.442 874.969C444.829 876.494 454.996 878.861 460.335 869.518C464.212 862.734 461.203 854.634 464.279 847.713C465.718 844.475 462.401 836.383 468.222 839.71C476.933 844.687 483.373 852.357 491.419 858.151C498.059 862.932 509.41 897.406 500.234 901.994" stroke="#E09EFF" stroke-width="8" stroke-linecap="round" stroke-linejoin="round"/>
</g>
<defs>
<clipPath id="clip0">
<rect width="1440" height="1024" fill="white"/>
</clipPath>
</defs>
</svg>
