<svg width="1440" height="1096" viewBox="0 0 1440 1096" fill="none" xmlns="http://www.w3.org/2000/svg">
<rect width="1440" height="1096" fill="black" fill-opacity="0.77"/>
<path d="M241 523C241 505.327 255.327 491 273 491H1408C1425.67 491 1440 505.327 1440 523V1096H241V523Z" fill="#636363"/>
<path d="M681.322 705L651.791 611.66H675.785L693.275 672.832L709.359 611.66H733.178L748.734 672.832L766.576 611.66H790.922L760.951 705H737.221L721.137 644.971L705.316 705H681.322ZM808.518 599.004V576.152H833.215V599.004H808.518ZM808.518 705V611.66H833.215V705H808.518ZM862.236 705V576.152H886.934V644.531L915.85 611.66H946.26L914.355 645.762L948.545 705H921.914L898.447 663.076L886.934 675.117V705H862.236ZM967.811 599.004V576.152H992.508V599.004H967.811ZM967.811 705V611.66H992.508V705H967.811Z" fill="#93B874"/>
<path d="M1047.02 576.152V623.525C1054.99 614.209 1064.51 609.551 1075.58 609.551C1081.27 609.551 1086.39 610.605 1090.96 612.715C1095.53 614.824 1098.96 617.52 1101.25 620.801C1103.59 624.082 1105.17 627.715 1105.99 631.699C1106.87 635.684 1107.31 641.865 1107.31 650.244V705H1082.61V655.693C1082.61 645.908 1082.14 639.697 1081.21 637.061C1080.27 634.424 1078.6 632.344 1076.2 630.82C1073.85 629.238 1070.89 628.447 1067.32 628.447C1063.22 628.447 1059.56 629.443 1056.33 631.436C1053.11 633.428 1050.74 636.445 1049.21 640.488C1047.75 644.473 1047.02 650.391 1047.02 658.242V705H1022.32V576.152H1047.02ZM1131.23 657.012C1131.23 648.809 1133.26 640.869 1137.3 633.193C1141.34 625.518 1147.05 619.658 1154.44 615.615C1161.88 611.572 1170.17 609.551 1179.31 609.551C1193.43 609.551 1205 614.15 1214.03 623.35C1223.05 632.49 1227.56 644.062 1227.56 658.066C1227.56 672.188 1222.99 683.906 1213.85 693.223C1204.77 702.48 1193.31 707.109 1179.49 707.109C1170.93 707.109 1162.76 705.176 1154.96 701.309C1147.23 697.441 1141.34 691.787 1137.3 684.346C1133.26 676.846 1131.23 667.734 1131.23 657.012ZM1156.55 658.33C1156.55 667.588 1158.74 674.678 1163.14 679.6C1167.53 684.521 1172.95 686.982 1179.4 686.982C1185.84 686.982 1191.23 684.521 1195.57 679.6C1199.96 674.678 1202.16 667.529 1202.16 658.154C1202.16 649.014 1199.96 641.982 1195.57 637.061C1191.23 632.139 1185.84 629.678 1179.4 629.678C1172.95 629.678 1167.53 632.139 1163.14 637.061C1158.74 641.982 1156.55 649.072 1156.55 658.33ZM1268.89 705L1239.36 611.66H1263.35L1280.84 672.832L1296.93 611.66H1320.74L1336.3 672.832L1354.14 611.66H1378.49L1348.52 705H1324.79L1308.7 644.971L1292.88 705H1268.89Z" fill="#E6EEE0"/>
<circle cx="308.5" cy="642.5" r="41.5" fill="#FF4848"/>
<circle cx="423.5" cy="642.5" r="41.5" fill="#FFD25D"/>
<circle cx="538.5" cy="642.5" r="41.5" fill="#00AE3B"/>
<path d="M308 799C308 781.327 322.327 767 340 767H1440V1096H308V799Z" fill="#3D3D3D"/>
</svg>
